<?xml version="1.0" encoding="iso-8859-1"?>
<!-- Generator: Adobe Illustrator 19.0.0, SVG Export Plug-In . SVG Version: 6.00 Build 0)  -->
<svg version="1.1" id="Layer_1" xmlns="http://www.w3.org/2000/svg" xmlns:xlink="http://www.w3.org/1999/xlink" x="0px" y="0px"
	 viewBox="0 0 512.001 512.001" style="enable-background:new 0 0 512.001 512.001;" xml:space="preserve">
<g>
	<g>
		<path d="M511.453,490.914L344.213,14.667l-0.009,0.003c-0.296-0.843-0.695-1.654-1.224-2.402
			c-1.817-2.565-4.767-4.089-7.909-4.089H176.926c-4.117,0-7.783,2.599-9.146,6.482L0.548,490.91
			c-1.042,2.966-0.58,6.252,1.237,8.818s4.767,4.089,7.909,4.089h125.406c23.692,0,44.884-15.019,52.731-37.373l68.169-194.131
			l68.161,194.134c7.847,22.354,29.042,37.374,52.739,37.374h125.406c3.144,0,6.092-1.524,7.909-4.088
			C512.035,497.168,512.494,493.879,511.453,490.914z M169.538,460.021c-5.126,14.599-18.965,24.407-34.439,24.407H23.374
			L183.797,27.57h137.594L169.538,460.021z M376.9,484.432c-15.478,0-29.32-9.808-34.444-24.408l-76.182-216.971l68.793-195.91
			l153.559,437.289H376.9z"/>
	</g>
</g>
<g>
</g>
<g>
</g>
<g>
</g>
<g>
</g>
<g>
</g>
<g>
</g>
<g>
</g>
<g>
</g>
<g>
</g>
<g>
</g>
<g>
</g>
<g>
</g>
<g>
</g>
<g>
</g>
<g>
</g>
</svg>
