<svg id="svg" version="1.1" width="400" height="250.50505050505052" viewBox="0 0 400 250.50505050505052" xmlns="http://www.w3.org/2000/svg" xmlns:xlink="http://www.w3.org/1999/xlink" ><g id="svgg"><path id="path0" d="M202.015 0.511 C 199.412 1.398,198.698 2.072,170.820 29.959 L 143.323 57.463 165.432 79.588 C 177.593 91.756,187.830 101.922,188.183 102.179 L 188.823 102.645 201.090 90.401 C 213.641 77.873,214.128 77.441,215.710 77.441 C 217.413 77.441,218.242 78.120,226.156 85.994 L 233.793 93.593 251.914 75.470 L 270.036 57.348 242.257 29.598 C 212.054 -0.574,213.729 0.976,210.544 0.242 C 208.603 -0.205,203.658 -0.049,202.015 0.511 M149.495 238.047 L 149.495 246.016 151.178 246.016 L 152.862 246.016 152.862 242.873 L 152.862 239.731 156.566 239.731 L 160.269 239.731 160.269 242.873 L 160.269 246.016 161.841 246.016 L 163.412 246.016 163.412 238.047 L 163.412 230.079 161.841 230.079 L 160.269 230.079 160.269 233.446 L 160.269 236.813 156.566 236.813 L 152.862 236.813 152.862 233.446 L 152.862 230.079 151.178 230.079 L 149.495 230.079 149.495 238.047 M376.207 232.990 L 376.207 235.901 375.398 235.353 C 370.831 232.253,365.053 237.646,367.310 242.902 C 368.626 245.966,372.735 247.263,375.398 245.455 L 376.207 244.907 376.207 245.461 C 376.207 245.994,376.264 246.016,377.666 246.016 L 379.125 246.016 379.125 238.047 L 379.125 230.079 377.666 230.079 L 376.207 230.079 376.207 232.990 M265.128 234.580 C 259.706 235.671,258.901 243.477,263.973 245.773 C 265.903 246.647,269.531 246.262,271.044 245.022 L 271.717 244.471 270.785 243.529 L 269.853 242.587 268.863 243.067 C 266.860 244.036,263.749 243.205,263.749 241.701 C 263.749 241.605,265.681 241.526,268.042 241.526 L 272.336 241.526 272.232 239.787 C 271.995 235.821,269.189 233.764,265.128 234.580 M351.852 234.557 C 345.971 235.668,345.448 244.411,351.167 246.012 C 353.309 246.612,356.234 246.091,357.912 244.810 C 358.351 244.476,358.340 244.446,357.426 243.524 L 356.490 242.580 355.639 242.984 C 353.901 243.809,352.247 243.720,351.084 242.741 C 349.734 241.606,349.970 241.526,354.690 241.526 L 358.987 241.526 358.859 239.834 C 358.569 235.989,355.701 233.829,351.852 234.557 M175.201 234.915 C 171.211 236.426,170.621 243.182,174.282 245.445 C 176.072 246.553,178.706 246.562,180.319 245.467 L 181.145 244.907 181.145 245.461 C 181.145 245.994,181.202 246.016,182.604 246.016 L 184.063 246.016 184.063 240.404 L 184.063 234.792 182.604 234.792 C 181.189 234.792,181.145 234.810,181.145 235.365 L 181.145 235.938 180.321 235.309 C 179.312 234.539,176.720 234.340,175.201 234.915 M223.686 234.927 C 220.327 236.156,219.096 241.109,221.370 244.247 C 222.753 246.157,226.093 246.856,228.357 245.710 L 229.405 245.179 229.405 247.842 L 229.405 250.505 230.864 250.505 L 232.323 250.505 232.323 242.649 L 232.323 234.792 231.001 234.792 C 229.762 234.792,229.669 234.830,229.531 235.379 C 229.395 235.920,229.354 235.938,228.994 235.612 C 227.872 234.597,225.444 234.283,223.686 234.927 M293.832 235.073 C 290.086 236.987,291.558 240.869,296.279 241.528 C 298.064 241.777,298.541 242.016,298.541 242.663 C 298.541 244.060,295.715 244.104,293.705 242.739 C 293.040 242.288,292.818 242.228,292.683 242.462 C 292.588 242.626,292.252 243.108,291.936 243.531 C 290.696 245.196,294.767 246.954,298.207 246.240 C 302.964 245.252,302.576 239.660,297.716 239.153 C 295.158 238.887,294.298 238.330,295.091 237.454 C 295.640 236.847,297.673 236.880,298.695 237.512 C 299.117 237.773,299.482 237.948,299.507 237.902 C 299.531 237.856,299.895 237.444,300.316 236.988 C 302.058 235.096,296.816 233.548,293.832 235.073 M332.660 234.863 C 329.118 235.985,328.010 241.935,330.832 244.673 C 332.585 246.374,335.698 246.807,337.985 245.668 C 339.715 244.806,339.757 244.674,338.642 243.580 L 337.679 242.635 336.685 243.086 C 334.357 244.141,332.214 242.869,332.212 240.431 C 332.210 237.995,334.673 236.506,336.679 237.729 L 337.444 238.195 338.361 237.278 C 340.235 235.404,336.263 233.721,332.660 234.863 M390.689 234.915 C 387.325 236.189,386.225 241.177,388.580 244.483 C 390.008 246.489,394.296 246.873,396.240 245.168 C 396.602 244.851,396.633 244.871,396.633 245.420 C 396.633 246.004,396.663 246.016,398.092 246.016 L 399.551 246.016 399.551 240.404 L 399.551 234.792 398.092 234.792 C 396.678 234.792,396.633 234.810,396.633 235.365 L 396.633 235.938 395.809 235.309 C 394.800 234.539,392.208 234.340,390.689 234.915 M192.368 236.139 L 192.368 237.486 194.613 237.486 C 195.847 237.486,196.857 237.533,196.857 237.590 C 196.857 237.647,195.746 239.249,194.388 241.150 C 192.503 243.788,191.919 244.772,191.919 245.311 L 191.919 246.016 196.633 246.016 L 201.347 246.016 201.347 244.557 L 201.347 243.098 198.886 243.098 L 196.424 243.098 198.886 239.700 C 200.856 236.980,201.347 236.151,201.347 235.547 L 201.347 234.792 196.857 234.792 L 192.368 234.792 192.368 236.139 M241.116 238.777 C 241.184 242.369,241.240 242.852,241.686 243.687 C 243.005 246.157,245.892 246.920,248.387 245.458 L 249.336 244.902 249.476 245.459 C 249.605 245.974,249.716 246.016,250.958 246.016 L 252.301 246.016 252.301 240.404 L 252.301 234.792 250.862 234.792 L 249.424 234.792 249.347 238.114 C 249.250 242.321,248.412 243.775,246.268 243.455 C 244.458 243.184,243.996 242.063,243.996 237.942 L 243.996 234.792 242.518 234.792 L 241.041 234.792 241.116 238.777 M309.764 238.036 C 309.764 242.775,310.220 244.311,311.975 245.494 C 313.398 246.453,315.940 246.379,317.406 245.336 C 318.052 244.876,318.294 244.949,318.294 245.604 C 318.294 245.958,318.485 246.016,319.641 246.016 L 320.988 246.016 320.988 240.404 L 320.988 234.792 319.529 234.792 L 318.070 234.792 318.070 237.864 C 318.070 242.412,316.977 244.133,314.620 243.299 C 313.001 242.726,312.805 242.208,312.718 238.256 L 312.642 234.792 311.203 234.792 L 309.764 234.792 309.764 238.036 M267.891 237.355 C 268.612 237.656,269.550 238.718,269.309 238.959 C 269.247 239.021,267.961 239.043,266.452 239.008 L 263.707 238.945 264.214 238.301 C 265.130 237.138,266.517 236.781,267.891 237.355 M355.064 237.645 C 356.600 238.791,356.247 239.057,353.191 239.057 C 350.125 239.057,349.959 238.969,351.074 237.927 C 352.124 236.946,353.955 236.817,355.064 237.645 M179.875 237.934 C 181.979 239.781,180.985 243.231,178.274 243.491 C 176.286 243.682,174.862 242.413,174.861 240.449 C 174.858 237.722,177.897 236.198,179.875 237.934 M374.616 237.878 C 376.891 239.545,376.031 243.015,373.230 243.469 C 370.810 243.862,369.031 240.858,370.376 238.652 C 371.212 237.281,373.284 236.903,374.616 237.878 M395.363 237.934 C 396.290 238.748,396.693 240.055,396.374 241.213 C 395.400 244.737,390.352 244.097,390.349 240.449 C 390.346 237.722,393.385 236.198,395.363 237.934 M228.309 238.339 C 230.639 240.947,227.499 244.690,224.510 242.867 C 222.672 241.747,222.790 238.791,224.713 237.757 C 225.701 237.226,227.586 237.531,228.309 238.339 " stroke="none" fill="#a4849c" fill-rule="evenodd"></path><path id="path1" d="M97.501 103.311 C 67.427 133.418,68.968 131.756,68.133 135.008 C 67.944 135.744,67.789 136.931,67.789 137.645 L 67.789 138.945 110.046 138.945 L 152.303 138.945 161.561 129.685 L 170.819 120.425 148.316 97.923 C 135.939 85.547,125.711 75.421,125.587 75.421 C 125.462 75.421,112.824 87.971,97.501 103.311 " stroke="none" fill="#acacac" fill-rule="evenodd"></path><path id="path2" d="M19.456 170.085 C 19.178 170.546,0.000 215.749,0.000 215.945 C 0.000 216.091,1.836 216.149,5.218 216.110 L 10.437 216.049 12.457 211.056 L 14.478 206.063 24.117 206.118 L 33.757 206.173 35.783 211.167 L 37.809 216.162 43.147 216.162 C 46.234 216.162,48.485 216.075,48.485 215.956 C 48.485 215.843,44.106 205.464,38.755 192.892 L 29.025 170.034 24.293 169.973 C 21.690 169.940,19.514 169.990,19.456 170.085 M370.940 170.646 C 370.770 171.050,366.381 181.364,361.185 193.565 C 355.990 205.767,351.740 215.843,351.740 215.956 C 351.740 216.075,353.941 216.160,356.958 216.158 L 362.177 216.155 364.198 211.110 L 366.218 206.064 375.855 206.119 L 385.493 206.173 387.528 211.164 L 389.562 216.156 394.781 216.159 L 400.000 216.162 399.997 215.657 C 399.996 215.379,395.669 205.000,390.383 192.593 L 380.770 170.034 376.010 169.973 L 371.249 169.912 370.940 170.646 M64.422 170.478 C 64.422 170.537,67.756 175.481,71.832 181.465 C 75.907 187.448,79.298 192.490,79.366 192.669 C 79.442 192.865,76.358 197.559,71.620 204.461 C 67.291 210.767,63.749 215.981,63.749 216.048 C 63.749 216.115,66.390 216.142,69.619 216.109 L 75.490 216.049 80.534 208.374 L 85.579 200.698 90.637 208.430 L 95.696 216.162 101.728 216.162 C 107.407 216.162,107.747 216.139,107.541 215.769 C 107.420 215.553,103.840 210.277,99.586 204.044 L 91.851 192.712 92.246 192.147 C 93.140 190.869,106.773 170.910,106.928 170.651 C 107.062 170.429,105.859 170.372,101.192 170.380 L 95.286 170.390 93.157 173.691 C 91.986 175.507,89.861 178.779,88.436 180.963 L 85.844 184.935 81.137 177.655 L 76.431 170.375 70.426 170.373 C 67.124 170.371,64.422 170.419,64.422 170.478 M128.171 193.266 L 128.171 216.162 145.679 216.162 L 163.187 216.162 163.187 211.560 L 163.187 206.958 150.730 206.958 L 138.272 206.958 138.272 202.357 L 138.272 197.755 149.046 197.755 L 159.820 197.755 159.820 193.154 L 159.820 188.552 149.046 188.552 L 138.272 188.552 138.272 183.951 L 138.272 179.349 150.505 179.349 L 162.738 179.349 162.738 174.860 L 162.738 170.370 145.455 170.370 L 128.171 170.370 128.171 193.266 M184.961 193.266 L 184.961 216.162 201.459 216.162 L 217.957 216.162 217.957 211.448 L 217.957 206.734 206.622 206.734 L 195.286 206.734 195.286 188.552 L 195.286 170.370 190.123 170.370 L 184.961 170.370 184.961 193.266 M238.384 193.266 L 238.384 216.162 255.892 216.162 L 273.401 216.162 273.401 211.560 L 273.401 206.958 261.055 206.958 L 248.709 206.958 248.709 202.357 L 248.709 197.755 259.484 197.755 L 270.258 197.755 270.258 193.154 L 270.258 188.552 259.484 188.552 L 248.709 188.552 248.709 183.951 L 248.709 179.349 260.943 179.349 L 273.176 179.349 273.176 174.860 L 273.176 170.370 255.780 170.370 L 238.384 170.370 238.384 193.266 M295.174 193.256 L 295.174 216.162 300.337 216.162 L 305.499 216.162 305.499 208.866 L 305.499 201.571 309.371 201.581 L 313.244 201.592 318.095 208.821 L 322.947 216.049 328.926 216.109 C 332.214 216.142,334.904 216.092,334.903 215.997 C 334.902 215.902,332.447 212.242,329.446 207.863 L 323.991 199.901 325.800 199.002 C 336.272 193.798,336.349 177.325,325.925 172.331 C 322.010 170.455,322.540 170.512,308.025 170.426 L 295.174 170.350 295.174 193.256 M319.283 180.226 C 324.371 182.253,324.620 189.205,319.691 191.625 L 318.406 192.256 311.953 192.325 L 305.499 192.393 305.499 185.968 L 305.499 179.542 311.728 179.620 C 317.647 179.694,318.023 179.724,319.283 180.226 M29.798 196.764 C 29.742 196.820,27.128 196.838,23.988 196.805 L 18.279 196.745 21.192 189.637 L 24.106 182.528 27.002 189.596 C 28.596 193.483,29.854 196.708,29.798 196.764 M381.594 196.684 C 381.594 196.779,378.983 196.857,375.791 196.857 L 369.988 196.857 372.919 189.693 L 375.850 182.528 378.722 189.519 C 380.301 193.364,381.594 196.588,381.594 196.684 " stroke="none" fill="#6c6c6c" fill-rule="evenodd"></path><path id="path3" d="M269.645 93.434 L 251.636 111.448 259.465 119.304 C 270.043 129.919,269.912 129.356,263.326 135.899 C 261.843 137.372,260.681 138.660,260.743 138.761 C 260.806 138.862,279.891 138.945,303.156 138.945 L 345.455 138.945 345.451 137.767 C 345.445 136.112,344.920 133.822,344.194 132.284 C 343.589 131.001,288.545 75.421,287.880 75.421 C 287.755 75.421,279.549 83.527,269.645 93.434 " stroke="none" fill="#745c6c" fill-rule="evenodd"></path><path id="path4" d="" stroke="none" fill="#a070a0" fill-rule="evenodd"></path><path id="path5" d="" stroke="none" fill="#7c7890" fill-rule="evenodd"></path><path id="path6" d="" stroke="none" fill="#a078a8" fill-rule="evenodd"></path><path id="path7" d="" stroke="none" fill="#a09084" fill-rule="evenodd"></path><path id="path8" d="" stroke="none" fill="#a070a0" fill-rule="evenodd"></path></g></svg>