<svg id="svg" version="1.1" width="400" height="207.37410071942446" viewBox="0 0 400 207.37410071942446" xmlns="http://www.w3.org/2000/svg" xmlns:xlink="http://www.w3.org/1999/xlink" ><g id="svgg"><path id="path0" d="M55.755 17.249 C 52.867 18.557,49.647 19.875,42.160 22.813 C 25.129 29.497,19.354 32.653,13.602 38.420 C 0.985 51.070,1.524 73.358,14.681 83.041 C 17.824 85.354,23.382 87.554,26.169 87.589 C 27.357 87.603,27.528 86.931,22.504 102.003 C 19.920 109.755,17.806 116.158,17.806 116.232 C 17.806 116.306,25.246 116.367,34.340 116.367 L 50.874 116.367 51.646 114.030 L 52.417 111.693 66.067 111.647 L 79.718 111.601 81.988 105.007 C 83.236 101.380,84.308 98.444,84.370 98.482 C 84.431 98.520,84.536 99.019,84.603 99.590 C 86.024 111.736,95.208 122.097,108.391 126.431 C 119.523 130.090,129.117 130.078,171.403 126.353 C 189.787 124.734,189.680 124.740,198.651 124.735 C 206.541 124.730,212.919 125.145,213.854 125.722 C 213.977 125.798,213.715 126.518,213.130 127.714 C 209.886 134.347,209.985 141.740,213.409 148.587 C 222.023 165.814,251.027 162.046,257.281 142.888 C 258.330 139.675,258.737 133.816,258.143 130.486 C 257.895 129.096,257.297 129.226,263.909 129.234 C 295.026 129.276,339.831 146.767,353.960 164.388 C 360.458 172.494,371.712 170.290,373.213 160.617 C 374.697 151.052,359.499 135.783,337.086 124.322 C 334.479 122.989,332.736 121.996,332.769 121.862 C 333.237 119.945,337.192 110.613,337.500 110.702 C 346.291 113.227,356.560 111.210,363.139 105.665 C 372.203 98.027,379.437 77.022,377.504 63.959 C 375.264 48.821,360.710 42.128,346.948 49.907 C 345.516 50.716,346.515 50.901,337.215 48.107 C 332.761 46.769,329.054 45.713,328.977 45.761 C 328.900 45.808,327.994 48.035,326.964 50.708 C 325.933 53.381,325.049 55.568,325.000 55.567 C 324.951 55.566,324.635 55.112,324.300 54.557 C 319.398 46.461,307.552 44.254,297.507 49.565 L 295.644 50.550 290.403 49.069 C 287.520 48.255,285.132 47.568,285.095 47.543 C 285.058 47.519,285.487 46.352,286.048 44.951 C 286.608 43.549,287.028 42.364,286.980 42.316 C 286.932 42.268,280.470 44.369,272.621 46.986 L 258.349 51.744 257.547 51.045 C 252.828 46.934,245.591 45.314,238.867 46.864 C 237.380 47.207,237.366 47.502,239.022 43.473 C 239.817 41.539,240.468 39.910,240.468 39.852 C 240.468 39.795,239.011 39.748,237.230 39.748 C 235.450 39.748,233.993 39.680,233.993 39.598 C 233.993 39.515,234.801 37.471,235.789 35.056 C 236.777 32.641,237.587 30.564,237.588 30.441 C 237.589 30.262,231.459 30.217,207.509 30.223 L 177.428 30.231 174.550 37.442 L 171.673 44.654 161.287 48.246 C 155.576 50.222,150.800 51.789,150.676 51.729 C 150.551 51.669,149.883 51.173,149.191 50.627 C 144.534 46.954,137.527 45.630,131.230 47.234 C 129.911 47.570,129.946 47.626,130.392 45.879 C 135.644 25.307,119.815 12.783,100.588 22.297 L 98.191 23.483 97.792 23.050 C 92.427 17.236,82.385 16.868,72.183 22.112 L 69.457 23.513 68.676 23.017 C 68.247 22.743,65.729 21.135,63.081 19.443 C 57.604 15.944,58.226 16.130,55.755 17.249 M62.266 28.471 C 70.238 33.523,69.833 33.288,70.160 33.042 C 70.319 32.922,71.112 32.320,71.923 31.705 C 78.186 26.954,85.686 25.084,89.880 27.228 C 92.417 28.524,94.580 31.943,94.915 35.184 L 95.011 36.121 96.831 34.502 C 109.582 23.153,122.824 24.864,122.837 37.860 C 122.841 42.167,122.659 42.786,114.591 65.784 C 107.651 85.565,106.867 89.923,109.002 96.853 C 112.143 107.054,119.645 109.454,146.387 108.809 C 154.178 108.621,156.766 108.516,172.662 107.735 C 200.509 106.369,206.992 106.384,215.695 107.836 C 227.164 109.750,234.063 111.864,239.123 115.015 L 240.386 115.802 242.720 115.181 C 247.226 113.982,252.590 113.222,258.023 113.013 L 261.099 112.895 264.159 105.189 C 265.842 100.950,267.198 97.482,267.173 97.482 C 267.148 97.482,266.644 97.804,266.054 98.199 C 257.790 103.717,247.186 102.301,244.685 95.346 L 244.362 94.449 243.179 95.543 C 233.800 104.209,223.352 103.145,220.862 93.272 C 220.665 92.489,220.504 91.712,220.504 91.546 C 220.504 91.365,219.683 92.078,218.480 93.304 C 208.194 103.784,194.204 104.352,191.621 94.396 C 191.459 93.769,191.294 93.147,191.256 93.014 C 191.213 92.867,190.381 93.541,189.142 94.722 C 179.109 104.298,167.033 104.105,164.816 94.335 L 164.531 93.076 162.616 94.980 C 153.296 104.249,140.093 104.880,137.134 96.197 L 136.863 95.400 135.275 96.936 C 126.497 105.424,116.733 105.097,113.631 96.210 L 113.040 94.514 113.054 90.827 C 113.103 78.403,119.874 62.897,127.566 57.597 C 134.849 52.579,143.632 53.819,146.937 60.331 L 147.522 61.484 150.605 60.408 C 161.129 56.733,164.595 55.555,164.732 55.607 C 164.817 55.639,164.408 56.879,163.823 58.363 C 153.594 84.317,152.338 87.845,152.338 90.619 C 152.338 95.619,159.266 90.597,165.326 81.205 C 167.595 77.687,167.990 76.811,172.730 64.748 C 175.354 58.071,178.784 49.371,180.353 45.414 L 183.204 38.219 190.647 38.172 C 194.740 38.147,198.149 38.187,198.221 38.262 C 198.293 38.338,196.575 42.891,194.402 48.381 C 178.288 89.100,178.204 89.338,179.164 91.445 C 180.740 94.904,191.435 84.281,194.906 75.809 C 195.842 73.525,202.878 55.733,202.878 55.650 C 202.878 55.609,201.426 55.576,199.651 55.576 C 197.876 55.576,196.386 55.514,196.340 55.439 C 196.293 55.364,196.956 53.583,197.813 51.482 L 199.371 47.663 202.698 47.659 L 206.025 47.655 207.934 42.937 L 209.843 38.219 217.421 38.173 C 221.597 38.147,225.000 38.195,225.000 38.281 C 225.000 38.367,224.158 40.492,223.128 43.004 L 221.257 47.572 224.553 47.621 L 227.849 47.670 226.290 51.529 L 224.730 55.389 221.480 55.392 L 218.229 55.396 215.959 61.106 C 205.502 87.412,205.079 88.680,206.010 90.909 C 208.035 95.756,220.043 84.140,223.664 73.831 C 226.758 65.023,231.933 58.303,237.661 55.657 C 244.167 52.651,251.901 54.663,254.421 60.018 C 255.074 61.406,253.935 61.610,263.671 58.361 C 268.270 56.826,272.121 55.592,272.229 55.618 C 272.341 55.645,270.284 61.068,267.505 68.076 C 260.641 85.385,260.294 86.343,259.912 89.059 C 259.083 94.953,265.101 91.991,271.275 83.466 C 274.498 79.016,274.831 78.333,279.504 66.579 C 281.891 60.577,283.876 55.633,283.915 55.594 C 283.954 55.555,287.026 56.391,290.741 57.452 L 297.496 59.381 298.171 58.772 C 301.791 55.501,308.076 53.746,311.953 54.922 C 322.577 58.148,321.842 75.120,310.323 92.575 C 309.521 93.790,308.906 94.784,308.957 94.784 C 309.148 94.784,311.475 93.430,312.727 92.589 C 316.003 90.391,318.866 87.503,321.697 83.543 C 324.662 79.394,324.873 78.950,329.578 66.881 C 332.171 60.232,334.052 55.649,334.197 55.624 C 334.332 55.601,337.353 56.461,340.911 57.534 L 347.380 59.485 348.589 58.508 C 356.766 51.902,366.249 53.898,368.686 62.739 C 371.399 72.578,364.909 92.855,357.051 99.095 C 351.172 103.763,340.398 103.958,335.970 99.476 C 333.896 97.377,333.708 97.908,337.910 93.977 L 339.039 92.921 339.798 93.652 C 341.281 95.079,342.244 95.179,343.732 94.062 C 349.165 89.985,355.677 72.874,353.439 68.557 C 352.186 66.138,348.638 67.122,344.874 70.933 C 342.062 73.779,342.947 71.700,325.662 116.073 L 324.550 118.927 322.932 118.823 C 322.041 118.766,318.743 118.619,315.601 118.497 C 312.460 118.375,309.807 118.224,309.706 118.162 C 309.596 118.093,311.164 113.886,313.661 107.552 C 315.936 101.779,317.769 97.025,317.733 96.989 C 317.696 96.953,317.111 97.282,316.432 97.720 C 306.349 104.225,290.038 104.027,284.737 97.334 L 284.207 96.665 286.642 94.433 L 289.076 92.202 289.547 92.760 C 291.598 95.188,293.924 94.144,297.149 89.349 C 302.661 81.152,305.687 69.238,302.747 67.313 C 300.644 65.936,295.310 68.586,292.911 72.200 C 292.500 72.821,289.391 80.384,284.246 93.283 C 279.833 104.347,276.185 113.491,276.140 113.602 C 276.087 113.731,276.437 113.850,277.103 113.928 C 312.388 118.102,351.237 136.766,363.506 155.437 C 366.543 160.059,363.742 162.362,360.288 158.082 C 342.342 135.850,285.409 116.162,252.708 120.881 C 250.373 121.218,246.743 121.902,246.617 122.028 C 246.583 122.062,246.879 122.684,247.273 123.410 C 250.288 128.954,250.802 136.642,248.476 141.411 C 243.516 151.582,226.811 153.910,221.509 145.169 C 216.805 137.414,219.545 128.683,228.928 121.529 L 230.607 120.248 229.647 119.915 C 223.595 117.817,212.838 116.040,203.751 115.637 C 196.371 115.311,190.154 115.639,169.514 117.447 C 142.855 119.782,134.201 120.305,125.809 120.090 C 99.794 119.423,88.137 104.961,94.175 80.845 C 95.310 76.313,99.344 63.880,102.842 54.132 C 106.062 45.161,106.163 42.986,103.360 42.986 C 100.825 42.986,96.469 45.894,92.953 49.936 L 91.410 51.709 87.795 61.960 C 85.807 67.599,81.800 79.051,78.891 87.410 L 73.602 102.608 65.938 102.655 C 61.722 102.681,58.273 102.637,58.273 102.557 C 58.273 102.379,64.667 83.846,70.417 67.356 C 77.012 48.444,77.518 46.858,77.518 45.075 C 77.518 41.976,74.357 42.129,69.964 45.441 C 67.918 46.983,64.141 50.765,63.782 51.631 C 63.167 53.112,47.331 99.473,45.063 106.430 L 44.755 107.374 37.137 107.374 L 29.518 107.374 35.785 88.624 C 39.232 78.312,43.809 64.735,45.956 58.453 C 48.104 52.172,50.173 46.113,50.554 44.990 C 51.135 43.277,51.198 42.962,50.939 43.043 C 49.227 43.575,36.742 48.216,35.124 48.922 C 28.565 51.784,26.050 54.782,26.294 59.446 C 26.503 63.425,29.328 65.455,34.667 65.465 C 35.681 65.466,36.511 65.497,36.511 65.533 C 36.511 65.591,32.957 75.999,32.241 78.036 L 31.964 78.824 29.337 78.729 C 18.606 78.342,12.007 69.978,13.116 58.174 C 14.033 48.426,19.117 42.135,30.755 36.350 C 34.661 34.408,37.060 33.395,46.493 29.703 C 50.054 28.310,53.898 26.768,55.036 26.278 C 56.174 25.787,57.161 25.380,57.230 25.373 C 57.299 25.366,59.565 26.760,62.266 28.471 M246.201 67.506 C 239.914 69.260,231.972 87.556,236.649 89.510 C 238.649 90.346,241.408 89.218,244.156 86.441 L 245.956 84.622 248.537 78.137 L 251.119 71.651 250.910 70.644 C 250.388 68.133,248.491 66.868,246.201 67.506 M138.419 68.071 C 132.642 70.130,125.085 87.253,128.579 90.367 C 130.405 91.994,135.415 89.579,138.025 85.813 C 138.596 84.988,143.525 72.507,143.525 71.885 C 143.525 69.029,141.007 67.148,138.419 68.071 M236.392 126.085 C 229.859 129.482,226.783 134.624,228.218 139.748 C 229.097 142.885,233.241 144.103,237.001 142.328 C 241.658 140.130,242.916 130.384,239.116 125.944 C 238.311 125.005,238.487 124.996,236.392 126.085 " stroke="none" fill="#fbb30c" fill-rule="evenodd"></path><path id="path1" d="M56.475 25.798 C 56.066 26.020,51.500 27.851,40.798 32.084 C 29.695 36.475,24.000 39.670,19.773 43.880 C 9.585 54.028,11.317 72.517,22.903 77.294 C 25.242 78.258,29.716 79.012,31.316 78.712 L 31.949 78.593 34.144 72.165 C 35.351 68.630,36.337 65.693,36.335 65.639 C 36.333 65.585,35.805 65.574,35.163 65.615 C 28.854 66.017,25.127 62.381,26.328 56.996 C 27.331 52.497,30.616 50.219,41.906 46.195 C 44.132 45.402,47.154 44.308,48.622 43.765 C 50.089 43.221,51.315 42.804,51.345 42.836 C 51.375 42.869,49.747 47.711,47.727 53.597 C 45.708 59.483,40.823 73.950,36.872 85.746 L 29.690 107.194 37.202 107.194 L 44.713 107.194 45.130 105.890 C 45.850 103.635,57.737 68.650,60.816 59.726 L 63.759 51.196 65.626 49.245 C 72.108 42.472,77.666 40.594,77.585 45.204 C 77.554 47.001,77.012 48.737,71.941 63.309 C 65.053 83.103,58.453 102.216,58.453 102.374 C 58.453 102.453,61.853 102.518,66.007 102.518 C 70.162 102.518,73.561 102.488,73.561 102.451 C 73.561 102.339,84.104 72.089,87.767 61.691 C 91.654 50.658,91.283 51.403,94.459 48.246 C 99.513 43.222,104.086 41.429,105.303 43.994 C 105.862 45.173,105.253 47.815,102.965 54.137 C 99.104 64.801,94.775 78.411,93.811 82.914 C 89.495 103.077,98.072 116.043,117.896 119.321 C 125.539 120.585,136.263 120.206,165.917 117.623 C 198.255 114.805,203.841 114.739,217.806 117.011 C 222.948 117.848,230.779 119.829,230.746 120.285 C 230.741 120.356,230.039 120.899,229.186 121.493 C 220.548 127.505,217.322 136.217,220.932 143.787 C 226.256 154.956,245.888 151.484,249.366 138.759 C 250.473 134.705,249.515 127.934,247.215 123.569 C 246.280 121.795,246.188 121.926,248.718 121.427 C 260.419 119.118,271.999 119.534,288.669 122.861 C 318.797 128.874,349.798 144.174,360.660 158.391 C 363.202 161.719,365.965 160.139,364.010 156.475 C 354.563 138.761,314.611 119.058,278.334 114.223 C 277.044 114.051,276.003 113.836,276.020 113.745 C 276.111 113.250,292.012 73.509,292.415 72.767 C 294.991 68.027,302.182 65.108,303.652 68.206 C 305.911 72.967,298.497 90.980,293.121 93.796 C 291.832 94.470,291.107 94.340,289.909 93.220 L 289.031 92.399 287.480 93.817 C 286.627 94.596,285.554 95.571,285.096 95.983 L 284.263 96.732 285.350 97.797 C 291.640 103.959,306.371 103.906,316.268 97.686 C 317.494 96.915,318.003 96.675,317.945 96.896 C 317.899 97.070,316.018 101.890,313.765 107.607 C 311.511 113.324,309.698 118.028,309.735 118.060 C 309.903 118.208,324.331 118.726,324.461 118.589 C 324.543 118.505,326.227 114.308,328.204 109.263 C 331.579 100.654,339.691 79.890,341.178 76.058 C 343.256 70.700,350.034 65.701,352.752 67.522 C 357.332 70.590,347.651 94.964,341.852 94.964 C 341.193 94.964,340.030 94.238,339.450 93.465 L 339.119 93.024 338.219 93.850 C 337.725 94.305,336.678 95.275,335.894 96.006 L 334.468 97.335 334.805 97.960 C 337.851 103.617,350.080 104.195,356.980 99.008 C 364.524 93.337,371.134 72.953,368.630 63.081 C 366.374 54.188,357.350 51.995,349.028 58.319 C 348.344 58.838,347.689 59.335,347.571 59.425 C 347.433 59.528,344.967 58.874,340.719 57.607 L 334.083 55.627 333.132 58.074 C 324.774 79.578,325.080 78.876,322.344 82.824 C 318.586 88.246,314.807 91.750,309.667 94.578 C 308.391 95.280,308.392 95.261,309.685 93.362 C 319.753 78.571,322.274 63.269,315.653 57.138 C 311.680 53.460,304.269 54.027,298.754 58.430 C 298.019 59.016,297.331 59.467,297.225 59.431 C 296.332 59.128,284.311 55.756,284.134 55.759 C 283.997 55.761,282.143 60.211,279.588 66.667 C 274.860 78.614,274.602 79.134,270.916 84.126 C 265.417 91.573,259.712 94.692,259.712 90.251 C 259.713 88.995,260.327 86.241,261.069 84.173 C 261.410 83.221,270.457 60.266,272.247 55.809 C 272.295 55.691,268.463 56.885,263.732 58.462 C 253.631 61.831,255.040 61.553,254.425 60.297 C 251.754 54.833,244.805 52.823,238.120 55.579 C 232.092 58.065,226.916 64.827,223.461 74.730 C 222.579 77.259,220.687 80.381,217.466 84.622 C 212.306 91.417,206.288 94.297,205.684 90.259 C 205.343 87.976,206.103 85.681,212.867 68.572 L 218.076 55.400 221.333 55.398 L 224.590 55.396 226.108 51.664 L 227.626 47.932 224.425 47.883 C 221.911 47.844,221.223 47.782,221.223 47.595 C 221.223 47.464,222.000 45.463,222.950 43.148 C 223.900 40.833,224.719 38.797,224.770 38.624 C 224.857 38.328,224.422 38.309,217.398 38.309 L 209.933 38.309 208.669 41.412 C 207.974 43.118,207.107 45.261,206.743 46.174 L 206.080 47.834 202.743 47.883 L 199.405 47.932 197.995 51.349 C 197.219 53.228,196.538 54.908,196.482 55.081 C 196.386 55.373,196.618 55.396,199.718 55.396 C 201.555 55.396,203.058 55.436,203.058 55.484 C 203.058 55.533,202.179 57.779,201.105 60.475 C 200.032 63.172,198.124 67.986,196.867 71.174 C 194.480 77.227,193.766 78.625,191.051 82.554 C 184.585 91.914,177.901 95.414,178.953 88.889 C 179.415 86.026,180.108 84.195,194.228 48.500 C 196.414 42.976,198.201 38.423,198.201 38.383 C 198.201 38.342,194.848 38.309,190.750 38.309 L 183.298 38.309 180.747 44.739 C 179.344 48.276,175.934 56.915,173.169 63.939 C 170.405 70.962,167.857 77.232,167.507 77.872 C 161.767 88.365,152.696 96.184,152.204 91.063 C 151.963 88.552,153.265 84.826,163.048 60.033 C 163.987 57.652,164.734 55.686,164.707 55.666 C 164.680 55.645,160.779 56.980,156.038 58.632 L 147.417 61.635 146.838 60.426 C 143.772 54.028,134.619 52.728,127.608 57.694 C 119.885 63.164,113.056 78.907,113.078 91.187 C 113.103 104.145,124.857 107.030,135.402 96.667 C 136.524 95.564,136.924 95.267,136.992 95.484 C 139.892 104.693,152.681 104.444,162.450 94.987 C 164.657 92.850,164.748 92.783,164.748 93.316 C 164.748 95.882,166.993 99.222,169.605 100.540 C 175.078 103.303,182.573 100.962,189.322 94.382 L 191.324 92.430 191.447 93.254 C 192.568 100.727,201.298 103.584,210.177 99.385 C 213.182 97.964,215.693 96.068,218.749 92.913 C 220.600 91.003,220.682 90.941,220.683 91.473 C 220.683 91.779,220.845 92.669,221.043 93.451 C 223.447 102.964,233.893 103.998,242.915 95.616 L 244.350 94.282 244.969 95.657 C 247.944 102.276,257.805 103.460,265.877 98.168 C 266.646 97.664,267.302 97.283,267.335 97.322 C 267.368 97.360,265.984 100.933,264.260 105.261 L 261.125 113.129 259.186 113.129 C 254.064 113.129,246.688 114.146,241.822 115.522 L 240.389 115.927 238.764 114.945 C 233.727 111.900,227.424 109.962,216.502 108.098 C 210.061 106.999,209.102 106.931,200.090 106.940 C 191.967 106.947,190.330 107.002,173.561 107.829 C 168.566 108.075,161.888 108.401,158.723 108.553 C 141.506 109.382,126.827 109.036,120.683 107.658 C 110.011 105.263,105.722 95.491,109.193 81.478 C 109.499 80.243,112.119 72.473,115.016 64.212 C 121.118 46.810,121.619 45.288,122.240 42.266 C 123.823 34.558,121.329 28.665,115.883 27.247 C 110.836 25.932,102.069 29.525,96.020 35.386 L 95.007 36.367 94.799 35.135 C 93.028 24.667,82.387 23.515,70.953 32.554 L 69.874 33.407 67.446 31.884 C 66.111 31.047,63.311 29.277,61.224 27.951 C 57.260 25.431,57.200 25.404,56.475 25.798 M385.775 49.432 C 379.982 51.344,378.991 59.288,384.137 62.563 C 387.051 64.417,390.953 63.933,393.326 61.424 C 398.497 55.957,392.907 47.078,385.775 49.432 M390.737 50.942 C 396.278 53.816,394.595 62.040,388.399 62.369 C 382.772 62.667,379.899 56.075,383.902 52.050 C 385.638 50.305,388.587 49.827,390.737 50.942 M384.712 56.372 L 384.712 60.432 385.612 60.432 L 386.511 60.432 386.511 58.903 L 386.511 57.374 387.674 57.374 C 389.038 57.374,389.209 57.551,389.209 58.966 C 389.209 60.343,389.282 60.432,390.418 60.432 C 391.366 60.432,391.403 60.414,391.272 60.027 C 391.196 59.804,391.099 59.096,391.056 58.453 C 390.998 57.597,390.878 57.177,390.605 56.884 C 390.279 56.533,390.269 56.471,390.522 56.374 C 391.035 56.177,391.423 54.834,391.203 54.017 C 390.821 52.596,390.450 52.436,387.396 52.370 L 384.712 52.312 384.712 56.372 M388.849 54.009 C 390.115 54.646,389.416 55.755,387.748 55.755 L 386.511 55.755 386.511 54.766 L 386.511 53.777 387.455 53.780 C 387.974 53.781,388.602 53.884,388.849 54.009 M249.177 67.698 C 250.039 68.203,250.682 69.244,251.017 70.675 L 251.251 71.673 248.609 78.237 L 245.967 84.802 244.162 86.620 C 238.824 91.994,234.122 90.818,235.340 84.413 C 237.272 74.255,244.816 65.142,249.177 67.698 M140.995 67.802 C 142.183 68.143,143.163 69.458,143.540 71.214 L 143.734 72.117 141.186 78.639 C 138.238 86.184,137.483 87.421,134.617 89.392 C 129.745 92.744,126.698 90.835,127.865 85.162 C 129.886 75.337,136.549 66.527,140.995 67.802 M239.201 125.854 C 241.774 128.828,242.304 134.581,240.373 138.579 C 238.817 141.801,237.082 143.019,233.878 143.137 C 229.801 143.288,228.089 141.779,227.916 137.884 C 227.692 132.848,230.350 129.091,236.331 125.992 C 238.611 124.810,238.309 124.824,239.201 125.854 M31.475 171.583 C 31.475 173.722,31.610 173.966,32.374 173.201 C 32.695 172.880,32.974 172.842,34.982 172.842 L 37.230 172.842 37.230 178.326 C 37.230 183.615,37.217 183.818,36.871 184.035 C 35.864 184.663,36.393 184.892,38.849 184.892 C 41.365 184.892,41.730 184.717,40.827 183.945 C 40.482 183.649,40.468 183.414,40.468 178.239 L 40.468 172.842 42.808 172.842 C 44.925 172.842,45.177 172.876,45.455 173.201 C 46.197 174.068,46.403 173.716,46.403 171.583 C 46.403 169.714,46.383 169.604,46.038 169.604 C 45.837 169.604,45.626 169.726,45.569 169.874 C 45.479 170.107,44.571 170.144,38.914 170.144 C 33.257 170.144,32.349 170.107,32.259 169.874 C 32.202 169.726,32.003 169.604,31.815 169.604 C 31.502 169.604,31.475 169.761,31.475 171.583 M176.734 169.874 C 176.644 170.107,175.754 170.144,170.239 170.144 C 163.356 170.144,163.315 170.150,164.209 171.043 C 164.554 171.389,164.568 171.643,164.568 177.520 C 164.568 183.414,164.555 183.648,164.209 183.945 C 163.136 184.863,163.323 184.892,170.313 184.892 C 174.429 184.892,176.818 184.957,176.888 185.072 C 177.388 185.881,177.698 185.227,177.698 183.363 C 177.698 181.386,177.457 180.952,176.799 181.745 C 176.611 181.971,175.868 182.014,172.190 182.014 L 167.806 182.014 167.806 180.306 L 167.806 178.597 170.324 178.597 C 172.602 178.597,172.876 178.631,173.201 178.957 C 173.959 179.714,174.101 179.472,174.101 177.428 C 174.101 175.695,174.073 175.540,173.760 175.540 C 173.573 175.540,173.373 175.661,173.316 175.809 C 173.231 176.033,172.746 176.079,170.509 176.079 L 167.806 176.079 167.806 174.460 L 167.806 172.842 172.034 172.842 C 176.040 172.842,176.279 172.861,176.571 173.201 C 177.312 174.068,177.518 173.716,177.518 171.583 C 177.518 169.761,177.491 169.604,177.178 169.604 C 176.990 169.604,176.790 169.726,176.734 169.874 M222.597 169.874 C 222.507 170.107,221.617 170.144,216.103 170.144 C 210.123 170.144,209.712 170.164,209.712 170.460 C 209.712 170.634,209.874 170.878,210.072 171.001 C 210.420 171.219,210.432 171.421,210.432 177.431 C 210.432 183.414,210.419 183.648,210.072 183.945 C 208.999 184.863,209.186 184.892,216.176 184.892 C 220.292 184.892,222.681 184.957,222.752 185.072 C 223.252 185.881,223.561 185.227,223.561 183.363 C 223.561 181.585,223.540 181.475,223.196 181.475 C 222.995 181.475,222.784 181.596,222.727 181.745 C 222.639 181.974,221.960 182.014,218.146 182.014 L 213.669 182.014 213.669 180.306 L 213.669 178.597 216.187 178.597 C 218.465 178.597,218.739 178.631,219.065 178.957 C 219.822 179.714,219.964 179.472,219.964 177.428 C 219.964 175.695,219.936 175.540,219.624 175.540 C 219.436 175.540,219.237 175.661,219.180 175.809 C 219.094 176.033,218.610 176.079,216.373 176.079 L 213.669 176.079 213.669 174.460 L 213.669 172.842 217.984 172.842 C 222.104 172.842,222.309 172.858,222.524 173.201 C 223.121 174.158,223.381 173.666,223.381 171.583 C 223.381 169.761,223.354 169.604,223.041 169.604 C 222.854 169.604,222.654 169.726,222.597 169.874 M278.352 169.874 C 278.263 170.107,277.373 170.144,271.858 170.144 C 265.719 170.144,265.468 170.157,265.468 170.483 C 265.468 170.670,265.628 170.863,265.827 170.915 C 266.179 171.007,266.187 171.161,266.187 177.410 C 266.187 183.615,266.176 183.817,265.827 184.035 C 265.629 184.158,265.468 184.402,265.468 184.576 C 265.468 184.872,265.887 184.892,272.032 184.892 C 276.289 184.892,278.597 184.955,278.597 185.072 C 278.597 185.171,278.759 185.252,278.957 185.252 C 279.294 185.252,279.317 185.132,279.317 183.363 C 279.317 181.630,279.289 181.475,278.976 181.475 C 278.789 181.475,278.589 181.596,278.532 181.745 C 278.444 181.974,277.772 182.014,274.016 182.014 L 269.604 182.014 269.604 180.292 L 269.604 178.571 272.227 178.629 C 274.475 178.679,274.883 178.732,275.080 179.002 C 275.681 179.826,275.899 179.407,275.899 177.428 C 275.899 175.695,275.871 175.540,275.559 175.540 C 275.372 175.540,275.172 175.661,275.115 175.809 C 275.029 176.033,274.545 176.079,272.308 176.079 L 269.604 176.079 269.604 174.460 L 269.604 172.842 273.829 172.842 C 277.860 172.842,278.065 172.858,278.279 173.201 C 278.876 174.158,279.137 173.666,279.137 171.583 C 279.137 169.761,279.110 169.604,278.796 169.604 C 278.609 169.604,278.409 169.726,278.352 169.874 M283.453 171.583 C 283.453 173.722,283.588 173.966,284.353 173.201 C 284.796 172.758,291.581 172.625,291.235 173.067 C 288.534 176.521,282.914 184.263,282.914 184.529 C 282.914 184.886,283.016 184.892,289.209 184.892 C 293.285 184.892,295.504 184.955,295.504 185.072 C 295.504 185.171,295.665 185.252,295.863 185.252 C 296.200 185.252,296.223 185.132,296.223 183.363 C 296.223 181.413,296.005 180.967,295.433 181.749 C 295.264 181.980,294.724 182.015,291.971 181.974 L 288.709 181.924 292.818 176.349 C 295.078 173.282,296.930 170.632,296.934 170.459 C 296.942 170.165,296.526 170.144,290.642 170.144 C 285.207 170.144,284.327 170.107,284.238 169.874 C 284.181 169.726,283.981 169.604,283.794 169.604 C 283.480 169.604,283.453 169.761,283.453 171.583 M195.078 170.058 C 186.803 172.150,187.084 183.338,195.456 185.081 C 197.913 185.593,201.442 185.020,203.971 183.699 C 204.622 183.359,205.269 183.124,205.410 183.175 C 206.305 183.505,205.395 181.278,203.959 179.625 C 203.732 179.363,203.221 179.702,203.330 180.043 C 203.667 181.107,199.904 182.685,197.447 182.510 C 192.077 182.125,190.514 175.522,195.212 173.062 C 197.390 171.921,202.781 172.870,202.787 174.396 C 202.790 175.236,203.400 174.797,204.371 173.255 C 205.683 171.173,205.684 171.166,204.586 171.017 C 204.092 170.950,202.999 170.677,202.158 170.410 C 200.236 169.800,196.779 169.628,195.078 170.058 M325.360 170.025 C 322.432 170.720,320.871 172.357,320.871 174.730 C 320.871 177.588,322.436 178.633,327.198 178.953 C 331.333 179.231,332.827 180.120,331.406 181.455 C 329.764 182.997,323.322 182.402,322.654 180.645 C 322.349 179.843,321.948 180.226,321.130 182.101 C 320.301 183.999,320.316 184.268,321.240 184.074 C 321.508 184.018,322.280 184.169,323.055 184.429 C 329.849 186.710,337.071 183.551,335.353 179.050 C 334.646 177.200,332.918 176.343,329.317 176.057 C 325.979 175.791,325.670 175.741,325.044 175.360 C 323.973 174.709,324.143 173.562,325.406 172.906 C 327.281 171.933,332.322 172.842,332.666 174.215 C 332.754 174.566,333.376 174.981,333.530 174.792 C 333.823 174.431,335.252 171.563,335.252 171.335 C 335.252 171.102,335.101 171.042,334.577 171.068 C 334.200 171.087,333.152 170.843,332.202 170.514 C 330.198 169.822,327.135 169.603,325.360 170.025 M50.180 170.460 C 50.180 170.634,50.337 170.875,50.530 170.995 C 50.861 171.202,50.882 171.491,50.934 176.479 C 50.997 182.449,51.026 182.584,52.533 183.874 C 54.441 185.507,60.593 185.819,63.350 184.422 C 65.410 183.378,65.681 182.450,65.781 176.112 C 65.846 171.954,65.907 171.001,66.114 170.922 C 66.253 170.869,66.367 170.672,66.367 170.484 C 66.367 170.168,66.203 170.144,64.029 170.144 C 61.507 170.144,61.262 170.255,62.050 171.043 C 62.476 171.468,62.594 178.442,62.206 180.249 C 61.614 183.011,56.566 183.805,54.785 181.417 C 54.274 180.732,54.084 171.121,54.578 170.931 C 54.731 170.873,54.856 170.672,54.856 170.484 C 54.856 170.168,54.692 170.144,52.518 170.144 C 50.406 170.144,50.180 170.175,50.180 170.460 M82.734 170.491 C 82.734 170.683,82.896 170.890,83.094 170.953 C 83.626 171.122,83.645 171.063,81.056 177.263 C 78.448 183.508,78.360 183.686,77.751 184.012 C 76.575 184.642,77.199 184.892,79.946 184.892 C 82.447 184.892,82.554 184.877,82.554 184.527 C 82.554 184.326,82.433 184.115,82.284 184.058 C 81.934 183.924,81.943 183.559,82.319 182.509 L 82.625 181.655 86.431 181.655 L 90.238 181.655 90.633 182.688 L 91.028 183.721 90.658 184.020 C 89.753 184.753,90.109 184.892,92.896 184.892 C 95.841 184.892,95.988 184.809,94.874 183.770 C 94.354 183.285,93.825 182.175,91.817 177.353 C 89.195 171.057,89.216 171.122,89.748 170.953 C 89.946 170.890,90.108 170.683,90.108 170.491 C 90.108 170.159,89.945 170.144,86.421 170.144 C 82.897 170.144,82.734 170.159,82.734 170.491 M98.741 170.402 C 98.741 170.557,98.906 170.848,99.107 171.050 C 99.634 171.577,99.586 183.718,99.056 184.015 C 98.003 184.603,98.668 184.892,101.079 184.892 C 103.514 184.892,104.176 184.591,103.058 183.993 C 102.728 183.816,102.698 183.616,102.698 181.577 L 102.698 179.354 106.250 179.277 C 111.861 179.156,113.677 178.011,113.665 174.601 C 113.658 172.639,112.984 171.639,111.061 170.739 L 109.982 170.234 104.362 170.177 C 99.359 170.127,98.741 170.152,98.741 170.402 M117.266 170.483 C 117.266 170.670,117.427 170.863,117.626 170.915 C 117.977 171.007,117.986 171.161,117.986 177.410 C 117.986 183.615,117.975 183.817,117.626 184.035 C 116.608 184.670,117.144 184.892,119.694 184.892 C 122.244 184.892,122.780 184.670,121.763 184.035 C 121.434 183.830,121.403 183.615,121.403 181.584 L 121.403 179.359 124.955 179.285 C 130.536 179.170,132.275 178.067,132.276 174.640 C 132.277 172.278,131.047 170.896,128.453 170.346 C 126.638 169.961,117.266 170.076,117.266 170.483 M143.705 170.484 C 143.705 170.672,143.826 170.871,143.975 170.928 C 144.208 171.018,144.245 171.916,144.245 177.493 C 144.245 183.070,144.208 183.968,143.975 184.058 C 142.043 184.799,149.134 185.284,153.344 184.698 C 157.793 184.080,159.802 181.851,159.802 177.536 C 159.802 173.485,158.283 171.449,154.547 170.494 C 152.492 169.968,143.705 169.961,143.705 170.484 M227.518 170.471 C 227.518 170.666,227.639 170.871,227.788 170.928 C 228.021 171.018,228.058 171.916,228.058 177.493 C 228.058 183.070,228.021 183.968,227.788 184.058 C 227.639 184.115,227.518 184.326,227.518 184.527 C 227.518 184.875,227.626 184.892,229.856 184.892 C 232.291 184.892,232.953 184.591,231.835 183.993 C 231.503 183.815,231.475 183.616,231.475 181.468 L 231.475 179.137 233.251 179.137 L 235.028 179.137 236.603 181.234 C 238.226 183.394,238.482 183.865,238.145 184.073 C 238.038 184.140,237.950 184.351,237.950 184.543 C 237.950 184.873,238.097 184.892,240.647 184.892 C 243.648 184.892,244.109 184.659,242.722 183.840 C 242.178 183.519,239.187 179.758,238.917 179.056 C 238.856 178.895,239.009 178.770,239.362 178.693 C 243.317 177.824,243.653 172.095,239.836 170.602 C 238.427 170.051,227.518 169.935,227.518 170.471 M245.324 170.491 C 245.324 170.683,245.478 170.888,245.667 170.948 C 246.181 171.111,246.328 171.393,249.173 177.658 C 252.016 183.920,251.922 183.667,251.529 183.993 C 250.655 184.718,251.124 184.892,253.957 184.892 C 256.789 184.892,257.343 184.689,256.295 184.035 C 256.097 183.911,255.935 183.721,255.935 183.613 C 255.935 183.010,261.209 171.628,261.695 171.181 C 262.711 170.246,262.516 170.144,259.712 170.144 C 257.314 170.144,257.194 170.161,257.194 170.504 C 257.194 170.701,257.311 170.863,257.453 170.863 C 257.596 170.863,257.762 170.944,257.823 171.042 C 257.904 171.173,254.314 179.863,254.050 180.175 C 253.975 180.264,250.000 171.532,250.000 171.278 C 250.000 171.143,250.121 170.985,250.270 170.928 C 250.418 170.871,250.540 170.672,250.540 170.484 C 250.540 170.166,250.371 170.144,247.932 170.144 C 245.474 170.144,245.324 170.164,245.324 170.491 M305.036 170.430 C 305.036 170.587,305.197 170.850,305.394 171.014 C 305.872 171.412,301.161 183.002,300.187 183.826 C 299.091 184.753,299.348 184.892,302.158 184.892 C 304.855 184.892,305.121 184.783,304.389 183.974 C 304.126 183.683,304.132 183.578,304.459 182.701 L 304.816 181.745 308.656 181.745 L 312.496 181.745 312.845 182.715 L 313.194 183.686 312.802 184.003 C 311.874 184.754,312.217 184.892,315.018 184.892 C 317.926 184.892,318.182 184.759,317.079 183.826 C 316.105 183.002,311.395 171.412,311.872 171.014 C 312.808 170.234,312.471 170.144,308.633 170.144 C 305.465 170.144,305.036 170.178,305.036 170.430 M109.083 173.014 C 110.884 173.721,110.928 175.328,109.173 176.277 C 108.863 176.445,107.787 176.541,105.710 176.588 L 102.698 176.655 102.698 174.633 L 102.698 172.611 105.621 172.707 C 107.228 172.759,108.786 172.897,109.083 173.014 M127.899 173.068 C 129.100 173.576,129.483 174.691,128.767 175.601 C 128.176 176.353,126.926 176.619,123.978 176.619 L 121.403 176.619 121.403 174.615 L 121.403 172.611 124.326 172.703 C 126.367 172.766,127.445 172.877,127.899 173.068 M153.867 173.086 C 157.263 174.568,157.391 179.940,154.072 181.703 C 153.415 182.053,152.995 182.107,150.495 182.163 L 147.662 182.226 147.662 177.425 L 147.662 172.623 150.405 172.698 C 152.493 172.755,153.319 172.848,153.867 173.086 M87.916 175.674 C 88.521 177.232,89.067 178.649,89.131 178.822 C 89.238 179.113,89.037 179.137,86.421 179.137 C 84.233 179.137,83.615 179.086,83.683 178.912 C 83.732 178.788,84.279 177.372,84.900 175.764 C 86.413 171.848,86.431 171.847,87.916 175.674 M238.147 173.139 C 239.593 173.718,239.667 175.445,238.279 176.201 C 237.781 176.472,237.155 176.538,234.577 176.588 L 231.475 176.648 231.475 174.745 L 231.475 172.842 234.439 172.842 C 236.777 172.842,237.560 172.905,238.147 173.139 M310.266 176.034 L 311.473 179.137 308.634 179.137 L 305.796 179.137 306.858 176.394 C 308.331 172.591,308.219 172.809,308.668 172.874 C 308.994 172.922,309.258 173.444,310.266 176.034 M22.482 179.317 C 22.482 181.200,22.733 181.626,23.381 180.845 C 23.563 180.626,24.143 180.576,26.467 180.576 C 28.844 180.576,29.345 180.621,29.431 180.845 C 29.488 180.994,29.688 181.115,29.875 181.115 C 30.187 181.115,30.216 180.961,30.216 179.317 C 30.216 177.672,30.187 177.518,29.875 177.518 C 29.688 177.518,29.488 177.639,29.431 177.788 C 29.345 178.013,28.831 178.058,26.349 178.058 C 23.867 178.058,23.353 178.013,23.266 177.788 C 23.210 177.639,23.010 177.518,22.822 177.518 C 22.511 177.518,22.482 177.672,22.482 179.317 M339.928 179.317 C 339.928 181.200,340.179 181.626,340.827 180.845 C 341.009 180.627,341.577 180.576,343.804 180.576 C 346.011 180.576,346.611 180.629,346.827 180.845 C 347.497 181.515,347.662 181.212,347.662 179.317 C 347.662 177.672,347.633 177.518,347.321 177.518 C 347.134 177.518,346.934 177.639,346.877 177.788 C 346.791 178.013,346.277 178.058,343.795 178.058 C 341.313 178.058,340.799 178.013,340.713 177.788 C 340.656 177.639,340.456 177.518,340.269 177.518 C 339.957 177.518,339.928 177.672,339.928 179.317 " stroke="none" fill="#8c241c" fill-rule="evenodd"></path><path id="path2" d="M113.266 26.926 C 113.490 26.969,113.814 26.967,113.986 26.922 C 114.158 26.877,113.975 26.842,113.579 26.844 C 113.183 26.846,113.043 26.883,113.266 26.926 M77.560 44.964 C 77.560 45.310,77.597 45.452,77.642 45.279 C 77.687 45.106,77.687 44.822,77.642 44.649 C 77.597 44.476,77.560 44.618,77.560 44.964 M26.124 58.903 C 26.126 59.299,26.163 59.439,26.206 59.216 C 26.249 58.992,26.248 58.668,26.203 58.496 C 26.158 58.324,26.122 58.507,26.124 58.903 M34.038 65.596 C 34.310 65.638,34.755 65.638,35.027 65.596 C 35.299 65.555,35.076 65.522,34.532 65.522 C 33.988 65.522,33.766 65.555,34.038 65.596 M242.525 69.829 L 241.996 70.414 242.581 69.885 C 242.902 69.595,243.165 69.332,243.165 69.301 C 243.165 69.162,243.017 69.284,242.525 69.829 M207.419 92.030 C 207.592 92.076,207.875 92.076,208.049 92.030 C 208.222 91.985,208.080 91.948,207.734 91.948 C 207.388 91.948,207.246 91.985,207.419 92.030 M174.238 101.746 C 174.461 101.789,174.785 101.787,174.957 101.742 C 175.129 101.697,174.946 101.662,174.550 101.664 C 174.155 101.666,174.014 101.703,174.238 101.746 M192.221 106.961 C 192.444 107.004,192.808 107.004,193.031 106.961 C 193.253 106.919,193.071 106.884,192.626 106.884 C 192.181 106.884,191.999 106.919,192.221 106.961 M187.275 107.138 C 187.448 107.184,187.732 107.184,187.905 107.138 C 188.078 107.093,187.936 107.056,187.590 107.056 C 187.244 107.056,187.102 107.093,187.275 107.138 M152.115 108.760 C 152.339 108.803,152.663 108.802,152.835 108.757 C 153.007 108.712,152.824 108.676,152.428 108.678 C 152.032 108.680,151.892 108.717,152.115 108.760 M133.408 108.940 C 133.631 108.983,133.995 108.983,134.218 108.940 C 134.440 108.897,134.258 108.862,133.813 108.862 C 133.368 108.862,133.186 108.897,133.408 108.940 M145.642 108.943 C 145.965 108.983,146.451 108.983,146.721 108.941 C 146.991 108.900,146.727 108.868,146.133 108.869 C 145.540 108.870,145.318 108.903,145.642 108.943 M258.410 113.077 C 258.634 113.120,258.958 113.118,259.130 113.073 C 259.302 113.028,259.119 112.993,258.723 112.995 C 258.327 112.997,258.187 113.034,258.410 113.077 M194.022 115.595 C 194.246 115.638,194.569 115.636,194.741 115.591 C 194.913 115.546,194.730 115.511,194.335 115.513 C 193.939 115.515,193.798 115.552,194.022 115.595 M203.642 115.592 C 203.815 115.637,204.098 115.637,204.272 115.592 C 204.445 115.546,204.303 115.509,203.957 115.509 C 203.611 115.509,203.469 115.546,203.642 115.592 M311.196 118.289 C 311.369 118.335,311.652 118.335,311.826 118.289 C 311.999 118.244,311.857 118.207,311.511 118.207 C 311.165 118.207,311.023 118.244,311.196 118.289 M136.196 119.908 C 136.369 119.953,136.652 119.953,136.826 119.908 C 136.999 119.863,136.857 119.826,136.511 119.826 C 136.165 119.826,136.023 119.863,136.196 119.908 M124.597 120.091 C 124.821 120.134,125.145 120.133,125.317 120.088 C 125.489 120.043,125.306 120.007,124.910 120.009 C 124.514 120.011,124.374 120.048,124.597 120.091 M128.552 120.097 C 129.071 120.133,129.921 120.133,130.441 120.097 C 130.960 120.060,130.535 120.031,129.496 120.031 C 128.458 120.031,128.033 120.060,128.552 120.097 M249.878 134.712 C 249.878 135.355,249.910 135.618,249.950 135.297 C 249.990 134.975,249.990 134.449,249.950 134.128 C 249.910 133.806,249.878 134.069,249.878 134.712 " stroke="none" fill="#b5561c" fill-rule="evenodd"></path><path id="path3" d="M235.121 86.691 C 235.121 87.136,235.156 87.318,235.199 87.095 C 235.242 86.873,235.242 86.509,235.199 86.286 C 235.156 86.063,235.121 86.246,235.121 86.691 M241.423 133.363 C 241.424 133.957,241.457 134.178,241.497 133.855 C 241.537 133.531,241.536 133.046,241.495 132.776 C 241.454 132.505,241.422 132.770,241.423 133.363 " stroke="none" fill="#c46b1c" fill-rule="evenodd"></path><path id="path4" d="M85.477 26.383 C 85.650 26.428,85.933 26.428,86.106 26.383 C 86.279 26.338,86.138 26.301,85.791 26.301 C 85.445 26.301,85.304 26.338,85.477 26.383 M199.398 47.797 C 199.352 47.871,200.298 47.911,201.501 47.885 C 205.601 47.796,206.029 47.732,202.753 47.697 C 200.954 47.678,199.444 47.723,199.398 47.797 M222.797 47.796 C 223.712 47.829,225.209 47.829,226.124 47.796 C 227.039 47.763,226.290 47.737,224.460 47.737 C 222.630 47.737,221.882 47.763,222.797 47.796 M304.011 70.683 C 304.011 71.228,304.044 71.450,304.086 71.178 C 304.127 70.906,304.127 70.461,304.086 70.189 C 304.044 69.917,304.011 70.139,304.011 70.683 M107.977 90.288 C 107.977 91.129,108.007 91.473,108.045 91.052 C 108.083 90.632,108.083 89.944,108.045 89.523 C 108.007 89.103,107.977 89.447,107.977 90.288 M205.617 89.568 C 205.617 89.915,205.654 90.056,205.700 89.883 C 205.745 89.710,205.745 89.427,205.700 89.254 C 205.654 89.080,205.617 89.222,205.617 89.568 M162.580 94.919 L 161.960 95.594 162.635 94.974 C 163.263 94.397,163.392 94.245,163.255 94.245 C 163.225 94.245,162.921 94.548,162.580 94.919 M201.394 101.389 C 201.715 101.429,202.241 101.429,202.563 101.389 C 202.884 101.349,202.621 101.317,201.978 101.317 C 201.335 101.317,201.072 101.349,201.394 101.389 M254.811 101.569 C 255.133 101.609,255.659 101.609,255.980 101.569 C 256.302 101.529,256.039 101.496,255.396 101.496 C 254.753 101.496,254.490 101.529,254.811 101.569 M299.239 102.468 C 299.562 102.509,300.048 102.508,300.318 102.467 C 300.588 102.426,300.324 102.393,299.730 102.394 C 299.137 102.395,298.916 102.428,299.239 102.468 M122.081 103.008 C 122.404 103.048,122.889 103.047,123.160 103.006 C 123.430 102.965,123.165 102.932,122.572 102.933 C 121.978 102.934,121.757 102.968,122.081 103.008 M193.932 106.964 C 194.206 107.005,194.610 107.004,194.832 106.961 C 195.053 106.918,194.829 106.885,194.335 106.886 C 193.840 106.887,193.659 106.922,193.932 106.964 M206.160 106.959 C 206.333 107.004,206.616 107.004,206.790 106.959 C 206.963 106.913,206.821 106.876,206.475 106.876 C 206.129 106.876,205.987 106.913,206.160 106.959 M188.354 107.138 C 188.527 107.184,188.811 107.184,188.984 107.138 C 189.157 107.093,189.015 107.056,188.669 107.056 C 188.323 107.056,188.181 107.093,188.354 107.138 M33.420 107.329 C 35.529 107.358,38.928 107.358,40.974 107.329 C 43.020 107.300,41.295 107.277,37.140 107.277 C 32.986 107.277,31.312 107.300,33.420 107.329 M153.282 108.757 C 153.455 108.802,153.739 108.802,153.912 108.757 C 154.085 108.712,153.943 108.675,153.597 108.675 C 153.251 108.675,153.109 108.712,153.282 108.757 M132.059 108.937 C 132.232 108.982,132.516 108.982,132.689 108.937 C 132.862 108.892,132.720 108.855,132.374 108.855 C 132.028 108.855,131.886 108.892,132.059 108.937 M147.529 108.942 C 147.803 108.983,148.208 108.982,148.429 108.940 C 148.650 108.897,148.426 108.863,147.932 108.864 C 147.437 108.866,147.256 108.901,147.529 108.942 M259.847 113.077 C 260.070 113.119,260.434 113.119,260.656 113.077 C 260.879 113.034,260.697 112.999,260.252 112.999 C 259.807 112.999,259.625 113.034,259.847 113.077 M192.851 115.592 C 193.024 115.637,193.307 115.637,193.480 115.592 C 193.653 115.546,193.512 115.509,193.165 115.509 C 192.819 115.509,192.678 115.546,192.851 115.592 M134.937 119.908 C 135.110 119.953,135.393 119.953,135.567 119.908 C 135.740 119.863,135.598 119.826,135.252 119.826 C 134.906 119.826,134.764 119.863,134.937 119.908 M126.217 120.094 C 126.541 120.134,127.026 120.134,127.296 120.093 C 127.567 120.052,127.302 120.019,126.709 120.020 C 126.115 120.021,125.894 120.054,126.217 120.094 M219.300 137.320 C 219.301 137.914,219.335 138.135,219.375 137.812 C 219.415 137.488,219.414 137.003,219.373 136.732 C 219.332 136.462,219.299 136.727,219.300 137.320 " stroke="none" fill="#9c301c" fill-rule="evenodd"></path><path id="path5" d="M139.613 67.750 C 139.786 67.795,140.070 67.795,140.243 67.750 C 140.416 67.705,140.274 67.668,139.928 67.668 C 139.582 67.668,139.440 67.705,139.613 67.750 M127.567 87.770 C 127.567 88.215,127.602 88.397,127.645 88.174 C 127.688 87.952,127.688 87.588,127.645 87.365 C 127.602 87.143,127.567 87.325,127.567 87.770 M129.993 90.955 C 130.217 90.998,130.541 90.996,130.713 90.951 C 130.884 90.906,130.701 90.871,130.306 90.873 C 129.910 90.875,129.769 90.912,129.993 90.955 " stroke="none" fill="#a43d1c" fill-rule="evenodd"></path><path id="path6" d="M344.863 70.728 L 344.335 71.313 344.919 70.785 C 345.464 70.292,345.586 70.144,345.447 70.144 C 345.416 70.144,345.153 70.407,344.863 70.728 M214.199 88.264 L 213.579 88.939 214.254 88.319 C 214.625 87.978,214.928 87.675,214.928 87.645 C 214.928 87.507,214.776 87.637,214.199 88.264 M159.074 89.254 L 158.363 90.018 159.128 89.307 C 159.839 88.646,159.975 88.489,159.839 88.489 C 159.809 88.489,159.465 88.833,159.074 89.254 M294.683 92.491 L 294.155 93.076 294.739 92.547 C 295.284 92.055,295.406 91.906,295.267 91.906 C 295.237 91.906,294.973 92.170,294.683 92.491 " stroke="none" fill="#ac441c" fill-rule="evenodd"></path><path id="path7" d="M231.105 129.631 L 230.486 130.306 231.160 129.686 C 231.788 129.109,231.917 128.957,231.780 128.957 C 231.750 128.957,231.446 129.260,231.105 129.631 " stroke="none" fill="#942c1c" fill-rule="evenodd"></path><path id="path8" d="M119.245 28.833 C 119.245 28.864,119.508 29.127,119.829 29.418 L 120.414 29.946 119.885 29.362 C 119.393 28.817,119.245 28.694,119.245 28.833 M95.765 35.477 L 95.054 36.241 95.818 35.530 C 96.239 35.139,96.583 34.795,96.583 34.766 C 96.583 34.630,96.426 34.766,95.765 35.477 M187.018 38.264 C 189.126 38.293,192.526 38.293,194.571 38.264 C 196.617 38.235,194.892 38.212,190.737 38.212 C 186.583 38.212,184.909 38.235,187.018 38.264 M209.830 38.264 C 209.754 38.387,215.520 38.384,222.392 38.259 C 223.876 38.232,221.675 38.191,217.502 38.169 C 213.328 38.147,209.876 38.190,209.830 38.264 M19.503 43.930 L 18.975 44.514 19.559 43.986 C 20.104 43.494,20.227 43.345,20.088 43.345 C 20.057 43.345,19.794 43.608,19.503 43.930 M66.361 48.516 L 65.378 49.550 66.412 48.567 C 66.981 48.027,67.446 47.561,67.446 47.533 C 67.446 47.400,67.274 47.555,66.361 48.516 M243.752 54.266 C 244.026 54.307,244.431 54.306,244.652 54.263 C 244.873 54.221,244.649 54.187,244.155 54.188 C 243.660 54.189,243.479 54.224,243.752 54.266 M197.977 55.530 C 198.892 55.562,200.389 55.562,201.304 55.530 C 202.219 55.497,201.470 55.470,199.640 55.470 C 197.810 55.470,197.062 55.497,197.977 55.530 M13.012 60.432 C 13.012 61.272,13.043 61.616,13.081 61.196 C 13.119 60.776,13.119 60.088,13.081 59.667 C 13.043 59.247,13.012 59.591,13.012 60.432 M231.916 59.757 L 231.205 60.522 231.969 59.811 C 232.390 59.420,232.734 59.076,232.734 59.046 C 232.734 58.910,232.577 59.046,231.916 59.757 M319.482 67.626 C 319.482 68.269,319.515 68.532,319.555 68.210 C 319.594 67.889,319.594 67.363,319.555 67.041 C 319.515 66.720,319.482 66.983,319.482 67.626 M369.306 68.076 C 369.307 68.867,369.339 69.168,369.377 68.745 C 369.415 68.322,369.414 67.675,369.375 67.306 C 369.337 66.938,369.306 67.284,369.306 68.076 M17.446 73.617 C 17.446 73.648,17.709 73.911,18.031 74.202 L 18.615 74.730 18.087 74.146 C 17.594 73.601,17.446 73.478,17.446 73.617 M243.966 86.736 L 243.255 87.500 244.020 86.789 C 244.731 86.128,244.867 85.971,244.731 85.971 C 244.701 85.971,244.357 86.315,243.966 86.736 M243.345 95.234 C 242.908 95.679,242.591 96.043,242.641 96.043 C 242.690 96.043,243.088 95.679,243.525 95.234 C 243.962 94.789,244.279 94.424,244.230 94.424 C 244.180 94.424,243.782 94.789,243.345 95.234 M135.426 96.718 L 134.442 97.752 135.477 96.769 C 136.437 95.855,136.593 95.683,136.460 95.683 C 136.432 95.683,135.966 96.149,135.426 96.718 M284.712 97.358 C 284.712 97.389,284.975 97.652,285.297 97.943 L 285.881 98.471 285.353 97.887 C 284.861 97.342,284.712 97.219,284.712 97.358 M358.352 97.887 L 357.824 98.471 358.408 97.943 C 358.953 97.451,359.075 97.302,358.937 97.302 C 358.906 97.302,358.643 97.565,358.352 97.887 M115.647 100.056 C 115.647 100.087,115.911 100.350,116.232 100.641 L 116.817 101.169 116.288 100.585 C 115.796 100.040,115.647 99.917,115.647 100.056 M65.917 102.518 L 58.183 102.614 65.862 102.656 C 70.832 102.683,73.579 102.634,73.651 102.518 C 73.712 102.419,73.737 102.357,73.707 102.380 C 73.676 102.403,70.171 102.465,65.917 102.518 M199.137 106.788 C 199.997 106.821,201.454 106.822,202.374 106.789 C 203.294 106.756,202.590 106.729,200.809 106.729 C 199.029 106.729,198.276 106.756,199.137 106.788 M190.964 106.962 C 191.188 107.005,191.512 107.003,191.684 106.958 C 191.856 106.913,191.673 106.878,191.277 106.880 C 190.881 106.882,190.741 106.919,190.964 106.962 M186.196 107.138 C 186.369 107.184,186.652 107.184,186.826 107.138 C 186.999 107.093,186.857 107.056,186.511 107.056 C 186.165 107.056,186.023 107.093,186.196 107.138 M155.621 108.577 C 155.794 108.622,156.077 108.622,156.250 108.577 C 156.423 108.532,156.281 108.495,155.935 108.495 C 155.589 108.495,155.447 108.532,155.621 108.577 M150.674 108.760 C 150.897 108.803,151.261 108.803,151.484 108.760 C 151.706 108.717,151.524 108.682,151.079 108.682 C 150.634 108.682,150.452 108.717,150.674 108.760 M135.212 108.945 C 135.635 108.983,136.282 108.982,136.650 108.944 C 137.019 108.905,136.673 108.874,135.881 108.875 C 135.090 108.875,134.789 108.907,135.212 108.945 M142.676 108.945 C 143.149 108.983,143.878 108.982,144.295 108.944 C 144.712 108.907,144.326 108.876,143.435 108.877 C 142.545 108.877,142.203 108.908,142.676 108.945 M257.239 113.074 C 257.412 113.119,257.696 113.119,257.869 113.074 C 258.042 113.028,257.900 112.991,257.554 112.991 C 257.208 112.991,257.066 113.028,257.239 113.074 M195.549 115.596 C 195.821 115.638,196.266 115.638,196.538 115.596 C 196.810 115.555,196.587 115.522,196.043 115.522 C 195.499 115.522,195.277 115.555,195.549 115.596 M202.023 115.596 C 202.295 115.638,202.741 115.638,203.013 115.596 C 203.285 115.555,203.062 115.522,202.518 115.522 C 201.974 115.522,201.751 115.555,202.023 115.596 M310.117 118.289 C 310.290 118.335,310.573 118.335,310.746 118.289 C 310.920 118.244,310.778 118.207,310.432 118.207 C 310.085 118.207,309.944 118.244,310.117 118.289 M314.433 118.469 C 314.607 118.515,314.890 118.515,315.063 118.469 C 315.236 118.424,315.094 118.387,314.748 118.387 C 314.402 118.387,314.260 118.424,314.433 118.469 M318.570 118.649 C 318.743 118.694,319.027 118.694,319.200 118.649 C 319.373 118.604,319.231 118.567,318.885 118.567 C 318.539 118.567,318.397 118.604,318.570 118.649 M131.700 120.093 C 131.972 120.134,132.417 120.134,132.689 120.093 C 132.961 120.052,132.738 120.018,132.194 120.018 C 131.650 120.018,131.428 120.052,131.700 120.093 M261.288 120.091 C 261.512 120.134,261.836 120.133,262.007 120.088 C 262.179 120.043,261.996 120.007,261.601 120.009 C 261.205 120.011,261.064 120.048,261.288 120.091 M266.324 120.091 C 266.548 120.134,266.872 120.133,267.043 120.088 C 267.215 120.043,267.032 120.007,266.637 120.009 C 266.241 120.011,266.100 120.048,266.324 120.091 " stroke="none" fill="#c4741c" fill-rule="evenodd"></path></g></svg>