<svg xmlns="http://www.w3.org/2000/svg" viewBox="0 0 468.33 190.76"><defs><style>.cls-1{fill:#fff;}.cls-2{fill:#1d1d1b;}</style></defs><title>Recurso 18</title><g id="Capa_2" data-name="Capa 2"><g id="Capa_1-2" data-name="Capa 1"><rect class="cls-1" width="468.33" height="190.76"/><path class="cls-2" d="M84.21,35.63C57,35.46,35,57.85,35,85.05v70.09l20.07-20.07a14.88,14.88,0,0,1,14.81-3.7,49,49,0,0,0,14.16,2c26.26-.08,48.47-22.11,48.74-48.37A48.89,48.89,0,0,0,84.21,35.63ZM99.09,94.74,75,118.86a8.23,8.23,0,0,1-11.63-11.64L87.45,83.1A8.23,8.23,0,1,1,99.09,94.74Zm3.08-28.6L78.06,90.26A8.23,8.23,0,0,1,66.42,78.63L90.54,54.51a8.24,8.24,0,0,1,11.63,0h0A8.24,8.24,0,0,1,102.17,66.14Z"/><path class="cls-2" d="M153.62,81.94l3-5.36a1.66,1.66,0,0,1,2.19-.39c.26.13,4.91,3.55,9.17,3.55,2.58,0,4.45-1.61,4.45-3.87,0-2.71-2.26-4.78-6.65-6.52-5.55-2.19-12.52-6.52-12.52-14.26,0-6.39,5-12.85,14.91-12.85A24.05,24.05,0,0,1,182,47.08a1.64,1.64,0,0,1,.38,2.07l-3.29,5c-.45.71-1.61,1.29-2.19.84s-5.3-3.88-9.24-3.88c-2.32,0-4.06,1.55-4.06,3.3,0,2.38,1.93,4.19,7,6.26s13,5.94,13,14.72c0,6.64-5.74,13.36-15.23,13.36-8.39,0-13-3.49-14.52-5C153.3,83.1,153.11,82.84,153.62,81.94Z"/><path class="cls-2" d="M211.46,42.24a23.24,23.24,0,1,1-23.18,23.3A23.2,23.2,0,0,1,211.46,42.24Zm0,36.15a12.91,12.91,0,1,0-12.85-12.85A12.94,12.94,0,0,0,211.46,78.39Z"/><path class="cls-2" d="M250.06,66.32,235.79,44.76a1.19,1.19,0,0,1,1-1.87h8.39a1.3,1.3,0,0,1,1,.58l9,13.23,9-13.23a1.19,1.19,0,0,1,1-.58h8.4a1.19,1.19,0,0,1,1,1.87L260.19,66.25v20.6A1.27,1.27,0,0,1,259,88.07h-7.68a1.22,1.22,0,0,1-1.22-1.22Z"/><path class="cls-2" d="M153.43,146.2l20.2-43.44a1.32,1.32,0,0,1,1.1-.71h.65a1.29,1.29,0,0,1,1.09.71l20.21,43.44a1.14,1.14,0,0,1-1.1,1.68h-7.16c-1.17,0-1.68-.39-2.26-1.62l-2.33-5.1H166.28L164,146.33a2.4,2.4,0,0,1-2.32,1.55h-7.1A1.14,1.14,0,0,1,153.43,146.2ZM180,132.39l-4.91-10.65H175l-4.84,10.65Z"/><path class="cls-2" d="M221.53,102.11a24.92,24.92,0,0,1,15.75,6.07,1.13,1.13,0,0,1,.13,1.74l-5.1,5.43a1.37,1.37,0,0,1-1.75.06,11.85,11.85,0,0,0-8.45-3.1,12.95,12.95,0,0,0,.06,25.89,15.2,15.2,0,0,0,5.75-1v-3.74h-4.07a1.18,1.18,0,0,1-1.23-1.16v-6.39a1.19,1.19,0,0,1,1.23-1.23h13a1.22,1.22,0,0,1,1.16,1.23l.06,17.36a1.62,1.62,0,0,1-.51,1,32.6,32.6,0,0,1-16,4.2,23.18,23.18,0,1,1,0-46.35Z"/><path class="cls-2" d="M246.89,103.92a1.23,1.23,0,0,1,1.23-1.23h26.72a1.23,1.23,0,0,1,1.23,1.23v7a1.23,1.23,0,0,1-1.23,1.22H257v8h14.72a1.27,1.27,0,0,1,1.23,1.22v7a1.23,1.23,0,0,1-1.23,1.23H257v8.71h17.88a1.23,1.23,0,0,1,1.23,1.23v7a1.23,1.23,0,0,1-1.23,1.23H248.12a1.23,1.23,0,0,1-1.23-1.23Z"/><path class="cls-2" d="M284.65,103.21a1.21,1.21,0,0,1,1.23-1.16h1.61l25.76,24.78h.06V103.92a1.23,1.23,0,0,1,1.23-1.23h7.75a1.27,1.27,0,0,1,1.22,1.23v43.44a1.21,1.21,0,0,1-1.22,1.16h-1a1.91,1.91,0,0,1-.84-.32l-25.49-25.63h-.07v24.08a1.23,1.23,0,0,1-1.22,1.23h-7.69a1.27,1.27,0,0,1-1.22-1.23Z"/><path class="cls-2" d="M354.62,102.05a21.68,21.68,0,0,1,15.62,6,1.21,1.21,0,0,1,.07,1.81l-5,5.23a1.13,1.13,0,0,1-1.61,0,13.19,13.19,0,0,0-8.71-3.3c-7.3,0-12.66,6.07-12.66,13.3A12.79,12.79,0,0,0,355,138.2a13.68,13.68,0,0,0,8.65-3.1,1.28,1.28,0,0,1,1.68.06l5,5.36a1.29,1.29,0,0,1-.06,1.74,22.16,22.16,0,0,1-15.69,6.26,23.24,23.24,0,1,1,0-46.47Z"/><path class="cls-2" d="M378.05,103.92a1.27,1.27,0,0,1,1.23-1.23H387a1.27,1.27,0,0,1,1.23,1.23v42.73a1.27,1.27,0,0,1-1.23,1.23h-7.74a1.27,1.27,0,0,1-1.23-1.23Z"/><path class="cls-2" d="M393.54,146.2l20.21-43.44a1.29,1.29,0,0,1,1.09-.71h.65a1.29,1.29,0,0,1,1.09.71l20.21,43.44a1.14,1.14,0,0,1-1.1,1.68h-7.16c-1.16,0-1.68-.39-2.26-1.62l-2.33-5.1H406.39l-2.33,5.17a2.4,2.4,0,0,1-2.32,1.55h-7.1A1.14,1.14,0,0,1,393.54,146.2Zm26.53-13.81-4.91-10.65h-.06l-4.84,10.65Z"/></g></g></svg>