<svg xmlns="http://www.w3.org/2000/svg" viewBox="0 0 469.47 190.76"><defs><style>.cls-1{fill:#ff26d0;}.cls-2{fill:#fff;}</style></defs><title>Recurso 22</title><g id="Capa_2" data-name="Capa 2"><g id="Capa_1-2" data-name="Capa 1"><rect class="cls-1" width="469.47" height="190.76"/><path class="cls-2" d="M87.58,35.63c-27.21-.17-49.2,22.22-49.2,49.42v70.09l20.07-20.07a14.88,14.88,0,0,1,14.81-3.7,49.07,49.07,0,0,0,14.16,2c26.26-.08,48.47-22.11,48.74-48.37A48.89,48.89,0,0,0,87.58,35.63Zm14.88,59.11L78.34,118.86a8.23,8.23,0,0,1-11.63-11.64L90.83,83.1a8.23,8.23,0,1,1,11.63,11.64Zm3.08-28.6L81.43,90.26A8.23,8.23,0,0,1,69.79,78.63L93.91,54.51a8.24,8.24,0,0,1,11.63,0h0A8.24,8.24,0,0,1,105.54,66.14Z"/><path class="cls-2" d="M157,81.94l3-5.36a1.66,1.66,0,0,1,2.19-.39c.26.13,4.91,3.55,9.17,3.55,2.58,0,4.45-1.61,4.45-3.87,0-2.71-2.26-4.78-6.65-6.52-5.55-2.19-12.52-6.52-12.52-14.26,0-6.39,5-12.85,14.91-12.85a24,24,0,0,1,13.82,4.84,1.64,1.64,0,0,1,.38,2.07l-3.29,5c-.45.71-1.61,1.29-2.19.84s-5.3-3.88-9.23-3.88c-2.33,0-4.07,1.55-4.07,3.3,0,2.38,1.94,4.19,7,6.26s13,5.94,13,14.72c0,6.64-5.74,13.36-15.23,13.36-8.39,0-13-3.49-14.52-5C156.67,83.1,156.48,82.84,157,81.94Z"/><path class="cls-2" d="M214.83,42.24a23.24,23.24,0,1,1-23.18,23.3A23.2,23.2,0,0,1,214.83,42.24Zm0,36.15A12.91,12.91,0,1,0,202,65.54,12.94,12.94,0,0,0,214.83,78.39Z"/><path class="cls-2" d="M253.43,66.32,239.16,44.76a1.19,1.19,0,0,1,1-1.87h8.4a1.29,1.29,0,0,1,1,.58l9,13.23,9-13.23a1.19,1.19,0,0,1,1-.58H277a1.19,1.19,0,0,1,1,1.87L263.56,66.25v20.6a1.27,1.27,0,0,1-1.23,1.22h-7.68a1.22,1.22,0,0,1-1.22-1.22Z"/><path class="cls-2" d="M156.8,146.2,177,102.76a1.32,1.32,0,0,1,1.1-.71h.65a1.29,1.29,0,0,1,1.09.71l20.21,43.44a1.14,1.14,0,0,1-1.1,1.68h-7.16c-1.17,0-1.68-.39-2.26-1.62l-2.33-5.1H169.65l-2.33,5.17a2.4,2.4,0,0,1-2.32,1.55h-7.1A1.14,1.14,0,0,1,156.8,146.2Zm26.53-13.81-4.91-10.65h-.06l-4.84,10.65Z"/><path class="cls-2" d="M224.9,102.11a24.92,24.92,0,0,1,15.75,6.07,1.13,1.13,0,0,1,.13,1.74l-5.1,5.43a1.36,1.36,0,0,1-1.74.06,11.89,11.89,0,0,0-8.46-3.1,12.95,12.95,0,0,0,.06,25.89,15.17,15.17,0,0,0,5.75-1v-3.74h-4.07a1.17,1.17,0,0,1-1.22-1.16v-6.39a1.18,1.18,0,0,1,1.22-1.23h13a1.22,1.22,0,0,1,1.16,1.23l.06,17.36a1.57,1.57,0,0,1-.51,1,32.6,32.6,0,0,1-16,4.2,23.18,23.18,0,1,1,0-46.35Z"/><path class="cls-2" d="M250.26,103.92a1.23,1.23,0,0,1,1.23-1.23h26.72a1.23,1.23,0,0,1,1.23,1.23v7a1.23,1.23,0,0,1-1.23,1.22H260.33v8h14.72a1.27,1.27,0,0,1,1.23,1.22v7a1.23,1.23,0,0,1-1.23,1.23H260.33v8.71h17.88a1.23,1.23,0,0,1,1.23,1.23v7a1.23,1.23,0,0,1-1.23,1.23H251.49a1.23,1.23,0,0,1-1.23-1.23Z"/><path class="cls-2" d="M288,103.21a1.22,1.22,0,0,1,1.23-1.16h1.61l25.76,24.78h.06V103.92a1.23,1.23,0,0,1,1.23-1.23h7.75a1.27,1.27,0,0,1,1.22,1.23v43.44a1.21,1.21,0,0,1-1.22,1.16h-1a1.91,1.91,0,0,1-.84-.32l-25.49-25.63h-.07v24.08a1.22,1.22,0,0,1-1.22,1.23h-7.69a1.27,1.27,0,0,1-1.22-1.23Z"/><path class="cls-2" d="M358,102.05a21.66,21.66,0,0,1,15.62,6,1.19,1.19,0,0,1,.07,1.81l-5,5.23a1.13,1.13,0,0,1-1.61,0,13.19,13.19,0,0,0-8.71-3.3c-7.3,0-12.66,6.07-12.66,13.3a12.79,12.79,0,0,0,12.72,13.11,13.66,13.66,0,0,0,8.65-3.1,1.28,1.28,0,0,1,1.68.06l5,5.36a1.28,1.28,0,0,1-.06,1.74A22.16,22.16,0,0,1,358,148.52a23.24,23.24,0,1,1,0-46.47Z"/><path class="cls-2" d="M381.42,103.92a1.27,1.27,0,0,1,1.23-1.23h7.74a1.27,1.27,0,0,1,1.23,1.23v42.73a1.27,1.27,0,0,1-1.23,1.23h-7.74a1.27,1.27,0,0,1-1.23-1.23Z"/><path class="cls-2" d="M396.91,146.2l20.21-43.44a1.29,1.29,0,0,1,1.09-.71h.65a1.32,1.32,0,0,1,1.1.71l20.2,43.44a1.14,1.14,0,0,1-1.1,1.68H431.9c-1.16,0-1.68-.39-2.26-1.62l-2.33-5.1H409.76l-2.33,5.17a2.4,2.4,0,0,1-2.32,1.55H398A1.14,1.14,0,0,1,396.91,146.2Zm26.53-13.81-4.9-10.65h-.07l-4.84,10.65Z"/></g></g></svg>