<svg id="svg" version="1.1" width="400" height="73.32205301748448" viewBox="0 0 400 73.32205301748448" xmlns="http://www.w3.org/2000/svg" xmlns:xlink="http://www.w3.org/1999/xlink" ><g id="svgg"><path id="path0" d="M0.000 36.583 L 0.000 73.167 11.667 73.167 L 23.333 73.167 23.333 36.583 L 23.333 0.000 11.667 0.000 L 0.000 0.000 0.000 36.583 M32.167 15.496 L 32.167 31.000 43.667 31.000 L 55.167 31.000 55.167 24.658 L 55.167 18.316 75.423 18.366 C 89.483 18.401,95.715 18.471,95.798 18.594 C 95.863 18.691,96.627 18.863,97.495 18.977 C 98.363 19.090,99.113 19.247,99.162 19.326 C 99.211 19.405,99.532 19.522,99.875 19.587 C 100.219 19.651,100.500 19.770,100.500 19.852 C 100.500 19.933,100.594 20.000,100.708 20.001 C 101.699 20.004,105.667 23.005,105.667 23.752 C 105.667 23.869,105.770 24.004,105.895 24.052 C 106.021 24.100,106.175 24.342,106.237 24.590 C 106.299 24.838,106.452 25.142,106.576 25.267 C 106.701 25.391,106.854 25.795,106.916 26.163 C 106.978 26.532,107.089 26.833,107.163 26.833 C 107.270 26.833,107.576 28.885,107.721 30.583 C 107.750 30.913,107.886 30.917,119.208 30.959 L 130.667 31.002 130.666 28.959 C 130.665 26.563,130.366 22.295,130.191 22.170 C 130.123 22.122,129.970 21.483,129.850 20.750 C 129.730 20.017,129.572 19.379,129.498 19.333 C 129.424 19.287,129.311 18.949,129.247 18.583 C 129.182 18.216,128.996 17.617,128.832 17.250 C 128.668 16.883,128.359 16.190,128.145 15.708 C 127.930 15.227,127.711 14.833,127.658 14.833 C 127.606 14.833,127.459 14.571,127.333 14.250 C 127.207 13.929,127.057 13.667,127.000 13.667 C 126.943 13.667,126.793 13.404,126.667 13.083 C 126.541 12.763,126.375 12.500,126.298 12.500 C 126.221 12.500,126.087 12.313,126.000 12.083 C 125.913 11.854,125.770 11.667,125.682 11.667 C 125.594 11.667,125.474 11.512,125.414 11.324 C 125.306 10.984,121.725 7.333,121.499 7.333 C 121.435 7.333,121.165 7.144,120.899 6.912 C 120.216 6.315,120.111 6.238,119.660 5.996 C 119.438 5.878,119.156 5.680,119.033 5.557 C 118.910 5.434,118.702 5.333,118.571 5.333 C 118.440 5.333,118.333 5.263,118.333 5.177 C 118.333 5.092,118.071 4.927,117.750 4.811 C 117.429 4.695,117.167 4.543,117.167 4.473 C 117.167 4.404,116.867 4.257,116.500 4.147 C 116.133 4.037,115.833 3.892,115.833 3.825 C 115.833 3.758,115.496 3.604,115.083 3.482 C 114.671 3.360,114.333 3.209,114.333 3.147 C 114.333 3.084,113.958 2.943,113.500 2.833 C 113.042 2.723,112.667 2.576,112.667 2.506 C 112.667 2.436,112.217 2.283,111.667 2.167 C 111.117 2.050,110.667 1.899,110.667 1.831 C 110.667 1.763,110.067 1.614,109.333 1.500 C 108.600 1.386,108.000 1.234,108.000 1.163 C 108.000 1.092,107.475 0.981,106.833 0.917 C 106.192 0.852,105.667 0.744,105.667 0.677 C 105.667 0.155,102.330 0.100,67.208 0.046 L 32.167 -0.009 32.167 15.496 M138.000 15.500 L 138.000 31.000 149.333 31.000 L 160.667 31.000 160.667 24.083 L 160.667 17.167 189.500 17.167 L 218.333 17.167 218.333 9.007 L 218.333 0.848 219.125 1.699 C 219.560 2.167,220.179 2.837,220.500 3.188 C 220.821 3.539,221.665 4.418,222.375 5.142 C 223.085 5.866,223.667 6.506,223.667 6.564 C 223.667 6.623,224.188 7.213,224.824 7.877 C 226.069 9.174,226.686 9.844,228.250 11.597 C 228.800 12.213,229.681 13.147,230.208 13.672 C 230.735 14.197,231.167 14.679,231.167 14.743 C 231.167 14.808,231.729 15.423,232.417 16.110 C 233.104 16.798,233.667 17.403,233.667 17.455 C 233.667 17.507,234.098 17.980,234.625 18.507 C 235.152 19.034,235.839 19.778,236.151 20.162 C 236.463 20.545,237.176 21.343,237.734 21.934 C 238.293 22.526,239.275 23.583,239.917 24.282 C 240.558 24.981,241.537 26.020,242.091 26.592 C 242.646 27.163,243.305 27.899,243.556 28.228 C 243.807 28.558,244.501 29.316,245.099 29.913 L 246.185 31.000 266.801 30.996 L 287.417 30.992 288.333 29.995 C 288.837 29.447,289.700 28.516,290.250 27.926 C 290.800 27.337,291.700 26.352,292.250 25.738 C 292.800 25.124,293.419 24.469,293.625 24.281 C 293.831 24.093,294.000 23.880,294.000 23.808 C 294.000 23.735,294.563 23.126,295.250 22.454 C 295.938 21.782,296.500 21.180,296.500 21.117 C 296.500 21.054,297.025 20.471,297.667 19.822 C 298.308 19.172,298.833 18.598,298.833 18.546 C 298.833 18.494,299.289 17.999,299.846 17.447 C 300.403 16.895,301.057 16.184,301.299 15.868 C 301.541 15.551,302.228 14.780,302.827 14.156 C 303.427 13.531,304.419 12.472,305.032 11.802 C 308.343 8.185,308.729 7.819,308.900 8.125 C 308.989 8.285,309.517 8.882,310.073 9.450 C 311.375 10.782,313.344 12.922,313.946 13.660 C 314.205 13.977,314.810 14.618,315.292 15.086 C 315.773 15.553,316.167 15.984,316.167 16.043 C 316.167 16.102,316.729 16.713,317.417 17.401 C 318.104 18.088,318.667 18.694,318.667 18.748 C 318.667 18.801,319.193 19.377,319.837 20.026 C 320.480 20.676,321.067 21.315,321.140 21.447 C 321.287 21.709,323.027 23.588,325.042 25.660 C 325.752 26.390,326.333 27.029,326.333 27.079 C 326.333 27.129,326.853 27.713,327.488 28.377 C 328.124 29.040,328.920 29.902,329.258 30.292 L 329.872 31.000 350.448 31.000 L 371.023 31.000 372.345 29.718 C 373.072 29.013,373.667 28.374,373.667 28.296 C 373.667 28.219,374.229 27.601,374.917 26.922 C 375.604 26.243,376.167 25.650,376.167 25.604 C 376.167 25.558,376.729 24.942,377.417 24.234 C 378.104 23.526,378.667 22.894,378.667 22.829 C 378.667 22.765,379.248 22.110,379.958 21.375 C 382.351 18.899,383.667 17.492,383.667 17.412 C 383.667 17.367,384.196 16.793,384.842 16.134 C 385.489 15.476,386.139 14.732,386.287 14.482 C 386.435 14.231,386.712 13.936,386.903 13.827 C 387.094 13.717,387.614 13.205,388.058 12.689 C 389.087 11.493,390.932 9.477,392.375 7.969 C 392.994 7.323,393.500 6.730,393.500 6.653 C 393.500 6.575,394.063 5.972,394.750 5.312 C 395.438 4.651,396.000 4.055,396.000 3.986 C 396.000 3.917,396.563 3.298,397.250 2.610 C 397.938 1.923,398.500 1.314,398.500 1.258 C 398.500 1.202,398.725 0.935,399.000 0.667 C 399.275 0.398,399.500 0.138,399.500 0.089 C 399.500 0.040,392.744 -0.000,384.487 -0.000 L 369.474 -0.000 368.862 0.653 C 368.525 1.012,367.938 1.668,367.557 2.111 C 367.176 2.554,366.594 3.226,366.265 3.604 C 365.936 3.981,365.667 4.332,365.667 4.382 C 365.667 4.432,365.385 4.776,365.042 5.145 C 364.698 5.515,364.172 6.102,363.874 6.450 C 363.575 6.798,362.996 7.458,362.587 7.917 C 362.177 8.375,361.841 8.809,361.838 8.880 C 361.835 8.952,361.571 9.251,361.250 9.546 C 360.929 9.840,360.667 10.149,360.667 10.233 C 360.667 10.317,360.385 10.667,360.042 11.012 C 359.257 11.800,358.105 13.152,358.016 13.391 C 357.979 13.490,357.698 13.808,357.391 14.097 C 357.084 14.386,356.833 14.681,356.833 14.753 C 356.833 14.824,356.590 15.126,356.292 15.424 C 355.647 16.067,354.480 17.441,354.261 17.815 C 354.175 17.961,353.856 18.315,353.553 18.602 C 353.249 18.888,353.000 19.168,353.000 19.223 C 353.000 19.320,352.842 19.504,351.251 21.250 L 350.492 22.083 350.163 21.667 C 349.983 21.438,349.572 20.980,349.251 20.649 C 348.929 20.319,348.667 19.990,348.667 19.919 C 348.667 19.848,348.404 19.542,348.083 19.239 C 347.762 18.937,347.500 18.636,347.500 18.570 C 347.500 18.505,347.181 18.097,346.792 17.664 C 346.402 17.231,345.821 16.564,345.500 16.182 C 345.179 15.799,344.635 15.190,344.292 14.827 C 343.948 14.464,343.667 14.099,343.667 14.017 C 343.667 13.935,343.414 13.646,343.105 13.375 C 342.796 13.104,342.465 12.741,342.369 12.570 C 342.179 12.231,341.444 11.367,340.458 10.327 C 340.115 9.964,339.833 9.599,339.833 9.517 C 339.833 9.435,339.571 9.137,339.250 8.856 C 338.929 8.574,338.667 8.282,338.667 8.207 C 338.667 8.078,337.903 7.191,336.587 5.792 C 336.264 5.448,336.000 5.099,336.000 5.017 C 336.000 4.935,335.737 4.637,335.417 4.356 C 335.096 4.074,334.833 3.782,334.833 3.707 C 334.833 3.632,334.496 3.199,334.084 2.744 C 333.290 1.866,332.907 1.416,332.214 0.542 L 331.785 0.000 308.651 0.000 L 285.517 0.000 285.050 0.625 C 284.794 0.969,284.452 1.348,284.292 1.468 C 284.131 1.588,284.000 1.756,284.000 1.843 C 284.000 1.929,283.719 2.295,283.375 2.656 C 282.478 3.597,281.350 4.900,281.036 5.357 C 280.888 5.573,280.632 5.848,280.467 5.968 C 280.302 6.088,280.167 6.256,280.167 6.343 C 280.167 6.429,279.885 6.795,279.542 7.156 C 278.645 8.097,277.517 9.400,277.203 9.857 C 277.055 10.073,276.798 10.348,276.633 10.468 C 276.468 10.588,276.333 10.756,276.333 10.843 C 276.333 10.929,276.052 11.289,275.708 11.641 C 274.983 12.385,273.692 13.890,273.342 14.399 C 273.209 14.592,272.965 14.848,272.800 14.968 C 272.635 15.088,272.500 15.256,272.500 15.343 C 272.500 15.429,272.219 15.792,271.875 16.150 C 270.856 17.210,270.273 17.877,269.746 18.583 C 269.474 18.950,269.119 19.348,268.958 19.468 C 268.798 19.588,268.667 19.752,268.667 19.833 C 268.667 19.914,268.292 20.372,267.833 20.850 C 267.375 21.328,267.000 21.782,267.000 21.859 C 267.000 22.177,266.620 21.960,266.036 21.307 C 265.696 20.927,265.173 20.348,264.875 20.023 C 264.577 19.697,264.333 19.377,264.333 19.312 C 264.333 19.247,264.052 18.892,263.708 18.523 C 263.365 18.155,262.821 17.543,262.500 17.163 C 262.179 16.783,261.598 16.125,261.208 15.700 C 260.819 15.276,260.500 14.868,260.500 14.793 C 260.500 14.718,260.237 14.415,259.917 14.121 C 259.596 13.827,259.333 13.518,259.333 13.435 C 259.333 13.352,259.077 13.014,258.764 12.684 C 257.230 11.064,256.667 10.421,256.667 10.289 C 256.667 10.209,256.404 9.897,256.083 9.594 C 255.762 9.292,255.500 8.986,255.500 8.914 C 255.500 8.843,255.244 8.514,254.930 8.184 C 254.028 7.233,253.216 6.305,252.656 5.583 C 252.371 5.217,252.032 4.857,251.903 4.783 C 251.773 4.710,251.667 4.560,251.667 4.449 C 251.667 4.338,251.404 4.007,251.083 3.712 C 250.762 3.418,250.500 3.112,250.500 3.032 C 250.500 2.952,250.200 2.609,249.833 2.270 C 249.467 1.931,249.167 1.584,249.167 1.500 C 249.167 1.415,248.861 1.043,248.487 0.673 L 247.807 0.000 192.903 0.000 L 138.000 0.000 138.000 15.500 M138.000 56.833 L 138.000 73.167 192.899 73.167 L 247.798 73.167 248.141 72.792 C 249.298 71.527,249.825 70.901,249.829 70.786 C 249.831 70.715,250.133 70.380,250.500 70.043 C 250.867 69.706,251.167 69.373,251.167 69.304 C 251.167 69.234,251.389 68.931,251.662 68.630 C 251.934 68.329,252.495 67.708,252.909 67.250 C 253.323 66.792,253.662 66.358,253.664 66.287 C 253.665 66.215,253.929 65.915,254.250 65.621 C 254.571 65.327,254.833 65.023,254.833 64.946 C 254.833 64.870,255.115 64.517,255.458 64.162 C 256.047 63.553,256.427 63.104,257.121 62.196 C 257.284 61.983,257.698 61.526,258.042 61.180 C 258.385 60.835,258.667 60.493,258.667 60.421 C 258.667 60.348,258.929 60.042,259.250 59.739 C 259.571 59.437,259.833 59.123,259.833 59.041 C 259.833 58.960,260.002 58.744,260.208 58.562 C 260.415 58.380,260.733 58.021,260.917 57.765 C 261.100 57.508,261.531 57.018,261.875 56.675 C 262.219 56.332,262.500 55.993,262.500 55.920 C 262.500 55.848,262.669 55.623,262.875 55.421 C 263.208 55.095,263.615 54.625,264.825 53.167 C 265.016 52.938,265.400 52.487,265.679 52.167 C 265.959 51.846,266.288 51.435,266.411 51.254 C 266.641 50.914,267.087 51.285,268.506 53.000 C 268.696 53.229,269.040 53.642,269.270 53.917 C 269.501 54.192,269.966 54.754,270.303 55.167 C 270.641 55.579,271.142 56.158,271.417 56.452 C 271.692 56.747,272.089 57.197,272.301 57.452 C 272.512 57.708,272.873 58.142,273.104 58.417 C 273.334 58.692,273.799 59.254,274.136 59.667 C 274.474 60.079,274.975 60.658,275.250 60.952 C 275.732 61.469,276.145 61.953,276.852 62.833 C 277.320 63.415,278.308 64.567,279.000 65.335 C 279.321 65.692,279.771 66.219,280.000 66.508 C 280.693 67.379,281.921 68.821,282.833 69.835 C 283.154 70.192,283.604 70.719,283.833 71.008 C 284.614 71.990,284.835 72.250,285.279 72.708 L 285.722 73.167 308.764 73.167 C 323.264 73.167,331.826 73.108,331.861 73.007 C 331.930 72.811,332.524 72.083,333.458 71.051 C 333.848 70.621,334.167 70.214,334.167 70.148 C 334.167 70.081,334.485 69.699,334.875 69.300 C 335.265 68.900,335.808 68.295,336.083 67.954 C 336.358 67.614,336.902 66.983,337.292 66.552 C 337.681 66.121,338.000 65.706,338.000 65.629 C 338.000 65.553,338.262 65.249,338.583 64.954 C 338.904 64.660,339.167 64.368,339.167 64.306 C 339.167 64.244,339.448 63.892,339.792 63.524 C 340.886 62.353,341.748 61.337,341.814 61.140 C 341.849 61.035,342.131 60.717,342.439 60.434 C 342.748 60.151,343.000 59.868,343.000 59.806 C 343.000 59.744,343.281 59.392,343.625 59.023 C 344.640 57.936,345.349 57.097,345.536 56.764 C 345.632 56.592,345.963 56.230,346.272 55.958 C 346.581 55.687,346.833 55.404,346.833 55.329 C 346.833 55.254,347.115 54.892,347.458 54.523 C 348.469 53.440,349.182 52.597,349.366 52.268 C 349.942 51.239,350.818 50.885,351.125 51.558 C 351.297 51.935,351.906 52.657,353.042 53.829 C 353.385 54.184,353.667 54.537,353.667 54.613 C 353.667 54.690,353.929 54.993,354.250 55.288 C 354.571 55.582,354.833 55.884,354.833 55.959 C 354.833 56.034,355.152 56.444,355.542 56.870 C 355.931 57.296,356.512 57.958,356.833 58.341 C 357.154 58.723,357.698 59.334,358.042 59.698 C 358.385 60.062,358.667 60.413,358.667 60.478 C 358.667 60.543,359.006 60.968,359.420 61.423 C 359.834 61.878,360.397 62.496,360.670 62.797 C 360.943 63.098,361.167 63.401,361.167 63.470 C 361.167 63.540,361.467 63.873,361.833 64.210 C 362.200 64.547,362.500 64.885,362.500 64.960 C 362.500 65.036,362.744 65.365,363.042 65.693 C 364.707 67.527,365.000 67.872,365.000 68.003 C 365.000 68.083,365.135 68.246,365.300 68.366 C 365.465 68.485,365.713 68.749,365.852 68.951 C 366.166 69.408,367.379 70.814,368.208 71.680 C 368.552 72.039,368.833 72.404,368.833 72.491 C 368.833 73.166,368.851 73.167,384.787 73.167 C 402.175 73.167,400.686 73.340,398.924 71.525 C 398.333 70.915,397.377 69.902,396.799 69.273 C 395.343 67.686,394.472 66.833,394.307 66.833 C 394.230 66.833,394.167 66.727,394.167 66.597 C 394.167 66.468,393.417 65.602,392.500 64.675 C 391.583 63.747,390.833 62.950,390.833 62.904 C 390.833 62.858,390.121 62.104,389.250 61.229 C 388.379 60.353,387.667 59.596,387.667 59.545 C 387.667 59.494,387.085 58.871,386.375 58.159 C 385.665 57.448,384.755 56.482,384.353 56.014 C 383.951 55.545,383.029 54.544,382.304 53.789 C 381.579 53.034,380.295 51.681,379.451 50.782 C 378.607 49.883,377.110 48.317,376.125 47.302 C 375.140 46.286,374.333 45.403,374.333 45.340 C 374.333 45.277,373.583 44.467,372.667 43.541 C 371.750 42.615,371.000 41.776,371.000 41.678 C 371.000 41.553,365.012 41.500,350.718 41.500 L 330.437 41.500 329.628 42.375 C 329.184 42.856,328.523 43.562,328.160 43.943 C 327.797 44.323,327.500 44.683,327.500 44.741 C 327.500 44.799,326.938 45.391,326.250 46.057 C 325.563 46.722,325.000 47.321,325.000 47.386 C 325.000 47.451,324.483 48.048,323.851 48.711 C 321.077 51.621,320.075 52.706,319.943 52.942 C 319.865 53.081,319.265 53.745,318.609 54.418 C 317.953 55.091,316.892 56.220,316.250 56.927 C 315.608 57.634,314.540 58.783,313.875 59.481 C 313.211 60.179,312.667 60.804,312.667 60.870 C 312.667 60.937,312.104 61.541,311.417 62.213 C 310.729 62.885,310.167 63.484,310.167 63.544 C 310.167 63.605,309.825 64.006,309.407 64.436 L 308.647 65.217 307.910 64.400 C 307.505 63.951,306.648 63.021,306.005 62.333 C 305.363 61.646,304.293 60.491,303.627 59.768 C 302.961 59.045,302.079 58.096,301.667 57.659 C 301.254 57.223,300.579 56.471,300.167 55.989 C 299.754 55.507,298.985 54.686,298.458 54.165 C 297.931 53.644,297.500 53.168,297.500 53.107 C 297.500 53.046,296.981 52.454,296.346 51.790 C 294.017 49.354,293.236 48.510,292.583 47.728 C 292.217 47.288,291.485 46.504,290.958 45.984 C 290.431 45.465,290.000 44.988,290.000 44.924 C 290.000 44.859,289.438 44.244,288.750 43.556 C 288.062 42.869,287.500 42.254,287.500 42.190 C 287.500 41.482,288.036 41.500,266.754 41.500 L 246.679 41.500 245.923 42.235 C 245.507 42.639,245.167 43.013,245.167 43.065 C 245.167 43.118,244.567 43.781,243.834 44.539 C 243.101 45.297,242.501 45.969,242.501 46.032 C 242.500 46.096,241.938 46.696,241.250 47.366 C 240.563 48.035,240.000 48.642,240.000 48.714 C 240.000 48.785,239.438 49.399,238.750 50.078 C 238.063 50.757,237.500 51.349,237.500 51.395 C 237.500 51.440,236.938 52.063,236.250 52.777 C 235.563 53.492,235.000 54.123,235.000 54.180 C 235.000 54.236,234.438 54.838,233.752 55.516 C 233.065 56.195,232.503 56.811,232.502 56.886 C 232.501 56.960,231.938 57.577,231.250 58.255 C 230.563 58.934,230.000 59.533,230.000 59.586 C 230.000 59.639,229.456 60.228,228.792 60.894 C 228.127 61.560,227.477 62.306,227.347 62.552 C 227.217 62.799,227.057 63.000,226.992 63.000 C 226.842 63.000,225.968 63.882,225.277 64.730 C 224.987 65.085,224.206 65.931,223.542 66.608 C 222.877 67.286,222.333 67.880,222.333 67.928 C 222.333 67.977,221.771 68.579,221.083 69.266 C 220.396 69.954,219.833 70.560,219.833 70.613 C 219.833 70.667,219.496 71.048,219.083 71.461 L 218.333 72.211 218.333 63.772 L 218.333 55.333 189.500 55.333 L 160.667 55.333 160.667 47.917 L 160.667 40.500 149.333 40.500 L 138.000 40.500 138.000 56.833 M32.167 57.339 L 32.167 73.177 66.625 73.119 C 100.659 73.062,104.657 72.999,105.000 72.514 C 105.046 72.449,105.794 72.303,106.662 72.190 C 107.530 72.077,108.280 71.926,108.328 71.856 C 108.377 71.785,108.960 71.632,109.625 71.515 C 110.290 71.398,110.833 71.241,110.833 71.166 C 110.833 71.091,111.133 70.979,111.500 70.917 C 111.867 70.855,112.167 70.748,112.167 70.679 C 112.167 70.610,112.579 70.461,113.083 70.348 C 113.587 70.235,114.000 70.087,114.000 70.020 C 114.000 69.952,114.375 69.800,114.833 69.683 C 115.292 69.565,115.667 69.407,115.667 69.331 C 115.667 69.255,115.948 69.101,116.292 68.989 C 116.635 68.877,116.954 68.740,117.000 68.684 C 117.046 68.629,117.346 68.449,117.667 68.285 C 118.583 67.816,119.037 67.542,119.148 67.390 C 119.204 67.313,119.475 67.137,119.750 67.000 C 120.346 66.702,120.508 66.583,121.275 65.875 C 121.598 65.577,121.923 65.333,121.997 65.333 C 122.163 65.333,124.833 62.647,124.833 62.481 C 124.833 62.415,125.089 62.099,125.401 61.777 C 125.714 61.455,126.019 61.036,126.079 60.846 C 126.140 60.656,126.250 60.500,126.324 60.500 C 126.399 60.500,126.553 60.275,126.667 60.000 C 126.781 59.725,126.937 59.500,127.014 59.500 C 127.090 59.500,127.243 59.200,127.353 58.833 C 127.463 58.467,127.608 58.167,127.675 58.167 C 127.742 58.167,127.844 57.979,127.902 57.750 C 127.959 57.521,128.073 57.333,128.154 57.333 C 128.236 57.333,128.399 56.958,128.516 56.500 C 128.634 56.042,128.785 55.667,128.853 55.667 C 128.921 55.667,129.071 55.235,129.186 54.708 C 129.302 54.181,129.454 53.710,129.526 53.660 C 129.597 53.611,129.749 53.011,129.863 52.327 C 129.978 51.643,130.121 51.046,130.182 51.000 C 130.358 50.868,130.667 46.258,130.667 43.767 L 130.667 41.500 119.167 41.500 L 107.667 41.500 107.667 42.114 C 107.667 43.092,107.302 45.667,107.163 45.667 C 107.094 45.667,106.985 45.946,106.921 46.287 C 106.806 46.898,106.053 48.364,105.798 48.472 C 105.726 48.503,105.667 48.626,105.667 48.747 C 105.667 49.019,103.701 50.967,103.297 51.095 C 103.133 51.147,103.000 51.259,103.000 51.345 C 103.000 51.430,102.923 51.500,102.830 51.500 C 102.736 51.500,102.379 51.686,102.035 51.913 C 101.692 52.140,101.169 52.375,100.872 52.434 C 100.576 52.493,100.333 52.601,100.333 52.673 C 100.333 52.745,100.033 52.855,99.667 52.917 C 99.300 52.979,99.000 53.085,99.000 53.152 C 99.000 53.283,96.727 53.670,95.972 53.668 C 95.728 53.667,95.497 53.760,95.458 53.875 C 95.403 54.040,91.182 54.094,75.278 54.135 L 55.167 54.187 55.167 47.844 L 55.167 41.500 43.667 41.500 L 32.167 41.500 32.167 57.339 " stroke="none" fill="#848c8c" fill-rule="evenodd"></path><path id="path1" d="M168.000 36.083 L 168.000 42.833 192.667 42.833 L 217.333 42.833 217.333 36.083 L 217.333 29.333 192.667 29.333 L 168.000 29.333 168.000 36.083 " stroke="none" fill="#f3543c" fill-rule="evenodd"></path><path id="path2" d="" stroke="none" fill="#a07090" fill-rule="evenodd"></path><path id="path3" d="" stroke="none" fill="#a07090" fill-rule="evenodd"></path><path id="path4" d="" stroke="none" fill="#a07090" fill-rule="evenodd"></path><path id="path5" d="" stroke="none" fill="#a07090" fill-rule="evenodd"></path><path id="path6" d="" stroke="none" fill="#a07090" fill-rule="evenodd"></path><path id="path7" d="" stroke="none" fill="#a07090" fill-rule="evenodd"></path><path id="path8" d="" stroke="none" fill="#a07090" fill-rule="evenodd"></path></g></svg>